<svg xmlns="http://www.w3.org/2000/svg" xmlns:v="https://svgstorm.com"
viewBox = "0 0 500 500"
width="500"
height="500">
<g fill="None" fill-opacity="0.0" stroke="#000000" stroke-opacity="0.00" stroke-width="0.3"><path d="
M 0.00 500.00 
L 500.00 500.00
L 500.00 0.00
L 0.00 0.00
L 0.00 500.00
M 267.00 101.00 
C 268.37 101.59 269.60 102.32 271.00 103.00
C 278.34 106.58 286.72 109.78 294.00 113.00
C 295.54 113.68 297.36 114.32 299.00 115.00
C 305.84 117.84 312.60 120.70 319.00 124.00
C 319.27 124.14 320.79 124.91 321.00 125.00
C 323.16 125.92 325.73 126.24 328.00 127.00
C 330.34 127.78 332.05 128.78 334.00 130.00
C 336.57 131.61 339.24 132.66 340.00 136.00
C 340.75 139.27 340.77 143.71 341.00 147.00
C 341.09 148.32 341.00 149.68 341.00 151.00
C 340.99 154.92 340.21 158.12 340.00 162.00
C 340.11 164.62 340.28 168.36 340.00 171.00
C 340.00 172.67 340.00 174.33 340.00 176.00
C 340.41 179.85 342.74 187.30 340.00 191.00
C 340.00 191.50 340.00 192.00 340.00 192.00
C 339.92 196.04 337.59 198.73 334.00 200.00
C 331.66 200.82 331.26 200.68 329.00 200.00
C 325.79 199.57 322.63 197.27 322.00 194.00
C 321.91 193.52 322.00 193.00 322.00 193.00
C 320.59 191.10 321.05 188.54 321.00 186.00
C 320.89 180.34 321.00 174.66 321.00 169.00
C 321.00 163.37 321.33 157.62 321.00 152.00
C 320.93 150.79 320.01 148.50 320.00 148.00
C 315.49 150.22 310.41 151.89 306.00 154.00
C 304.44 154.75 302.85 156.29 301.00 157.00
C 300.15 157.33 298.93 157.74 298.00 158.00
C 296.49 158.74 294.73 160.22 293.00 161.00
C 284.89 164.67 275.88 167.59 268.00 172.00
C 267.39 172.34 266.77 172.64 266.00 173.00
C 265.57 173.21 264.59 173.71 264.00 174.00
C 263.14 174.42 262.08 175.51 261.00 176.00
C 258.26 177.25 255.02 179.50 252.00 180.00
C 250.05 180.32 246.95 180.32 245.00 180.00
C 232.40 177.90 220.51 167.06 208.33 162.67 C 196.14 158.28 183.41 150.36 171.00 145.00
C 169.11 144.19 167.54 142.96 166.00 142.00
C 159.99 138.24 159.22 133.37 166.00 130.00
C 166.29 129.86 167.65 129.22 168.00 129.00
C 170.77 127.28 173.79 126.44 177.00 125.00
C 178.10 124.51 179.67 123.64 181.00 123.00
C 185.48 120.82 190.03 118.72 195.00 117.00
C 195.85 116.71 197.25 116.36 198.00 116.00
C 198.88 115.19 198.75 115.38 200.00 115.00
C 201.29 114.24 203.66 113.14 204.00 113.00
C 207.06 111.26 209.82 110.06 213.00 109.00
C 213.87 108.71 215.22 108.36 216.00 108.00
C 217.72 107.21 220.19 106.05 222.00 105.00
C 222.90 104.48 223.88 103.53 225.00 103.00
C 240.69 95.50 250.74 93.96 267.00 101.00
M 168.00 152.00 
C 174.07 156.17 168.40 171.84 170.00 179.00 C 171.60 186.16 167.27 197.62 174.70 201.30 C 182.12 204.99 185.94 208.47 193.00 212.00
C 194.80 212.90 196.47 214.11 198.00 215.00
C 199.85 215.88 201.46 217.04 203.00 218.00
C 204.34 218.84 205.87 220.33 207.00 221.00
C 212.94 223.01 219.83 226.52 224.75 230.25 C 229.67 233.98 239.47 235.08 241.00 242.00
C 241.72 245.25 241.72 249.78 242.00 253.00
C 242.14 254.64 242.00 256.35 242.00 258.00
C 242.00 281.33 242.00 304.67 242.00 328.00
C 242.00 331.33 242.00 334.67 242.00 338.00
C 242.17 339.47 242.94 341.90 243.00 344.00
C 243.10 347.66 243.00 351.34 243.00 355.00
C 243.00 361.33 243.00 367.67 243.00 374.00
C 243.00 378.31 244.48 395.20 241.00 395.00
C 239.64 394.92 237.96 393.43 237.00 393.00
C 232.91 391.65 228.85 390.13 225.00 388.00
C 223.39 387.11 222.31 385.89 221.00 385.00
C 210.58 379.24 198.12 372.87 190.00 364.00
C 187.45 361.80 184.61 360.06 182.00 358.00
C 175.79 353.10 167.10 345.74 163.00 339.00
C 162.71 338.52 162.33 337.35 162.00 337.00
C 160.43 335.32 158.49 333.73 157.00 332.00
C 155.58 330.79 154.19 328.56 153.00 327.00
C 151.99 325.68 150.86 324.37 150.00 323.00
C 149.62 322.39 149.38 321.56 149.00 321.00
C 148.43 320.16 147.65 318.94 147.00 318.00
C 146.05 316.63 144.39 315.98 144.00 314.00
C 143.91 313.52 144.24 312.30 144.00 312.00
C 139.93 307.47 137.44 302.57 135.00 297.00
C 134.39 295.61 133.65 294.36 133.00 293.00
C 131.55 289.99 130.57 286.95 129.00 284.00
C 128.17 282.44 127.57 281.65 127.00 280.00
C 124.64 273.17 123.00 265.97 121.00 259.00
C 120.62 257.67 119.43 255.66 119.00 254.00
C 116.92 245.93 114.41 234.43 115.00 226.00
C 114.75 224.40 114.01 222.23 114.00 220.00
C 113.99 218.67 114.00 217.33 114.00 216.00
C 114.00 215.00 114.00 214.00 114.00 213.00
C 113.42 210.34 113.00 207.27 113.00 204.00
C 113.00 203.00 113.00 202.00 113.00 201.00
C 111.74 195.28 112.23 188.62 113.00 183.00
C 113.00 181.67 113.07 180.32 113.00 179.00
C 112.84 176.11 112.72 173.33 113.00 170.00
C 118.04 167.59 123.20 165.27 128.00 164.00
C 129.04 163.68 130.62 163.34 132.00 163.00
C 141.30 159.13 152.01 154.43 162.00 152.00
C 164.20 151.46 165.85 150.53 168.00 152.00
M 353.00 158.00 
C 361.57 160.41 364.78 162.99 374.07 164.93 C 383.36 166.87 385.53 173.31 385.00 183.00 C 384.47 192.69 384.40 201.69 384.00 211.00
C 383.94 212.33 384.00 213.67 384.00 215.00
C 384.00 215.50 384.00 216.00 384.00 216.00
C 384.27 218.42 383.23 219.92 383.00 222.00
C 382.43 227.12 382.34 231.86 382.00 237.00
C 381.87 239.00 381.94 239.53 381.00 241.00
C 378.38 245.10 373.29 238.28 371.00 235.00
C 370.84 234.77 370.00 235.00 370.00 235.00
C 366.71 232.93 362.86 232.25 359.00 232.00
C 356.69 231.85 354.32 232.00 352.00 232.00
C 351.50 232.00 351.00 232.00 351.00 232.00
C 350.08 232.00 348.90 231.82 348.00 232.00
C 347.03 232.20 345.33 233.76 344.00 234.00
C 343.52 234.09 342.41 234.19 342.00 234.00
C 337.28 236.00 330.43 244.60 329.00 249.00
C 328.38 252.27 328.26 256.25 327.00 259.00
C 325.80 261.63 324.34 261.50 322.00 263.00
C 320.75 263.80 319.47 265.24 318.00 266.00
C 316.99 266.52 315.94 266.55 315.00 267.00
C 311.11 268.84 308.24 272.57 303.77 273.77 C 299.30 274.97 293.70 271.09 289.00 271.00
C 287.67 270.97 286.33 271.00 285.00 271.00
C 283.67 271.00 282.33 271.00 281.00 271.00
C 280.50 271.00 280.00 271.00 280.00 271.00
C 274.18 274.04 274.35 272.13 268.75 277.75 C 263.16 283.38 258.49 296.29 262.19 303.25 C 265.90 310.21 256.50 312.08 256.00 311.00
C 255.49 309.89 256.00 307.25 256.00 306.00
C 256.00 304.67 256.00 303.33 256.00 302.00
C 256.00 294.97 256.39 287.28 257.00 281.00
C 257.00 270.44 258.29 260.64 257.00 250.00 C 255.71 239.36 262.06 236.13 270.23 232.23 C 278.40 228.33 284.17 225.72 292.00 222.00
C 292.40 221.81 293.47 221.27 294.00 221.00
C 306.19 214.75 314.97 207.49 329.00 210.00
C 331.37 210.42 331.66 210.28 334.00 210.00
C 348.84 208.21 348.00 196.83 348.00 184.00
C 348.00 181.67 348.00 179.33 348.00 177.00
C 348.00 172.92 346.03 160.96 349.00 158.00
C 350.74 156.26 351.43 157.56 353.00 158.00
M 191.00 170.00 
C 202.68 174.47 213.47 180.85 225.00 186.00
C 226.39 186.62 227.87 187.49 229.00 188.00
C 235.70 190.21 241.52 195.39 249.00 195.00 C 256.48 194.61 261.87 188.30 269.00 187.00
C 270.13 186.48 271.60 185.58 273.00 185.00
C 273.94 184.61 275.15 184.40 276.00 184.00
C 284.82 179.82 293.89 175.11 303.00 171.00
C 304.11 170.50 304.84 170.35 306.00 170.00
C 313.21 167.82 308.38 178.16 309.33 182.67 C 310.28 187.18 309.67 194.82 307.00 199.00
C 305.59 201.21 303.29 203.78 301.00 205.00
C 293.28 209.12 284.10 212.64 276.00 216.00
C 275.05 216.39 273.86 216.60 273.00 217.00
C 271.93 217.50 270.19 218.42 269.00 219.00
C 267.88 219.55 266.23 220.40 265.00 221.00
C 252.25 227.24 242.54 227.29 230.77 219.23 C 219.00 211.17 209.75 210.76 199.00 204.00
C 197.53 203.08 196.24 201.87 195.00 201.00
C 191.85 198.79 188.39 197.43 188.00 193.00
C 187.21 190.51 186.23 183.85 187.00 181.00 C 187.77 178.15 185.17 169.98 188.00 169.00
C 189.03 168.64 190.12 169.66 191.00 170.00
M 365.00 240.00 
C 366.29 240.54 367.06 241.22 368.00 242.00
C 375.92 248.55 378.45 261.41 372.00 270.00
C 369.86 272.85 367.92 274.47 365.00 276.00
C 360.10 278.56 354.53 279.33 348.99 278.01 C 343.46 276.69 341.27 271.80 336.00 273.00
C 330.08 274.35 325.21 279.08 319.75 281.75 C 314.30 284.43 306.95 287.14 305.00 293.00
C 304.96 293.54 305.09 296.24 305.00 297.00
C 305.00 297.85 305.43 300.29 305.00 301.00
C 306.72 302.68 308.92 303.69 311.00 305.00
C 312.45 305.91 313.76 307.18 315.00 308.00
C 318.06 309.64 321.07 311.18 324.00 313.00
C 332.75 318.42 332.07 313.97 340.00 310.00
C 341.81 308.15 344.45 308.41 347.00 308.00
C 349.30 307.63 350.72 307.57 353.00 308.00
C 365.70 310.39 373.95 322.64 368.00 335.00
C 367.42 336.20 366.60 337.06 366.00 338.00
C 360.65 346.35 352.89 349.00 342.33 346.67 C 331.77 344.34 331.61 333.63 329.00 326.00
C 328.68 325.49 326.46 324.31 326.00 324.00
C 318.07 318.69 309.41 313.49 301.00 309.00
C 299.80 310.03 298.36 311.27 297.00 312.00
C 293.21 314.03 286.60 314.91 282.00 314.00
C 281.54 313.91 279.32 313.20 279.00 313.00
C 277.94 315.16 275.75 316.61 274.00 318.00
C 268.82 322.13 263.34 326.86 258.00 331.00
C 256.82 331.92 255.31 333.05 254.00 334.00
C 252.74 334.91 251.93 336.83 250.00 337.00
C 247.01 331.92 250.17 325.59 255.00 323.00
C 256.25 321.97 257.80 321.00 259.00 320.00
C 263.43 316.32 268.92 312.35 272.00 308.00
C 270.46 306.60 269.45 302.93 269.00 301.00
C 268.14 297.95 268.26 295.97 269.00 293.00
C 270.68 286.21 273.42 282.85 279.75 278.75 C 286.07 274.64 293.16 279.91 299.00 282.00
C 300.73 282.62 301.25 283.16 303.00 282.00
C 303.35 281.77 304.00 282.00 304.00 282.00
C 305.27 280.69 306.43 280.77 308.00 280.00
C 312.09 277.31 316.52 274.34 321.00 272.00
C 321.98 271.49 323.12 271.45 324.00 271.00
C 326.48 269.20 328.94 267.13 332.00 266.00
C 332.62 265.60 333.95 263.88 335.00 264.00
C 330.91 245.59 349.10 233.41 365.00 240.00
M 270.00 389.00 
C 265.87 391.18 260.75 395.91 256.00 395.00
C 259.13 390.57 264.48 388.30 269.00 386.00
C 288.66 371.96 308.56 356.26 329.00 344.00
C 314.52 363.89 291.57 377.86 270.00 389.00 Z"/>
</g>
<g fill="None" fill-opacity="0.0" stroke="#FBFBFB" stroke-opacity="0.97" stroke-width="0.3"><path d="
M 225.00 103.00 
C 223.20 104.30 223.68 104.48 222.00 105.00
C 220.19 106.05 217.72 107.21 216.00 108.00
C 214.05 109.25 214.44 108.74 213.00 109.00
C 209.82 110.06 207.06 111.26 204.00 113.00
C 202.43 113.89 201.71 114.47 200.00 115.00
C 198.75 115.38 198.88 115.19 198.00 116.00
C 196.02 117.82 196.55 116.73 195.00 117.00
C 190.03 118.72 185.48 120.82 181.00 123.00
C 178.79 124.59 178.55 124.54 177.00 125.00
C 173.79 126.44 170.77 127.28 168.00 129.00
C 168.25 128.81 166.35 129.86 166.00 130.00
C 159.22 133.37 159.99 138.24 166.00 142.00
C 167.27 142.53 168.92 143.60 171.00 145.00
C 183.41 150.36 196.14 158.28 208.33 162.67 C 220.51 167.06 232.40 177.90 245.00 180.00
C 245.45 180.04 251.63 180.03 252.00 180.00
C 255.02 179.50 258.26 177.25 261.00 176.00
C 262.91 174.72 262.43 174.16 264.00 174.00
C 264.59 173.71 265.57 173.21 266.00 173.00
C 266.52 172.31 266.74 172.38 268.00 172.00
C 275.88 167.59 284.89 164.67 293.00 161.00
C 295.46 159.52 294.56 158.98 298.00 158.00
C 298.93 157.74 300.15 157.33 301.00 157.00
C 303.74 155.09 303.39 154.66 306.00 154.00
C 310.41 151.89 315.49 150.22 320.00 148.00
C 320.27 147.87 320.85 147.27 321.00 147.00
C 321.48 146.16 321.03 144.41 323.00 145.00
C 322.33 161.17 324.33 178.66 322.00 194.00
C 322.63 197.27 325.79 199.57 329.00 200.00
C 330.43 200.19 332.58 200.24 334.00 200.00
C 337.59 198.73 339.92 196.04 340.00 192.00
C 336.19 188.33 340.38 179.31 339.00 174.00 C 337.62 168.69 340.32 160.65 339.00 155.00 C 337.68 149.35 340.64 140.75 340.00 136.00
C 339.24 132.66 336.57 131.61 334.00 130.00
C 332.12 129.12 329.72 127.79 328.00 127.00
C 325.73 126.24 323.16 125.92 321.00 125.00
C 320.07 124.76 319.00 124.00 319.00 124.00
C 312.60 120.70 305.84 117.84 299.00 115.00
C 297.51 114.64 295.95 114.18 294.00 113.00
C 286.72 109.78 278.34 106.58 271.00 103.00
C 269.68 102.61 268.91 102.10 267.00 101.00
C 250.74 93.96 240.69 95.50 225.00 103.00 Z"/>
</g>
<g fill="None" fill-opacity="0.0" stroke="#BFBEC9" stroke-opacity="0.33" stroke-width="0.3"><path d="
M 271.00 103.00 
C 269.60 102.32 268.37 101.59 267.00 101.00
C 268.91 102.10 269.68 102.61 271.00 103.00 Z"/>
</g>
<g fill="None" fill-opacity="0.0" stroke="#B6B2C2" stroke-opacity="0.35" stroke-width="0.3"><path d="
M 222.00 105.00 
C 223.68 104.48 223.20 104.30 225.00 103.00
C 223.88 103.53 222.90 104.48 222.00 105.00 Z"/>
</g>
<g fill="None" fill-opacity="0.0" stroke="#D1D1DD" stroke-opacity="0.44" stroke-width="0.3"><path d="
M 213.00 109.00 
C 214.44 108.74 214.05 109.25 216.00 108.00
C 215.22 108.36 213.87 108.71 213.00 109.00 Z"/>
</g>
<g fill="None" fill-opacity="0.0" stroke="#A3A3AC" stroke-opacity="0.15" stroke-width="0.3"><path d="
M 200.00 115.00 
C 201.71 114.47 202.43 113.89 204.00 113.00
C 203.66 113.14 201.29 114.24 200.00 115.00 Z"/>
</g>
<g fill="None" fill-opacity="0.0" stroke="#CECEDB" stroke-opacity="0.33" stroke-width="0.3"><path d="
M 299.00 115.00 
C 297.36 114.32 295.54 113.68 294.00 113.00
C 295.95 114.18 297.51 114.64 299.00 115.00 Z"/>
</g>
<g fill="None" fill-opacity="0.0" stroke="#C7CAD3" stroke-opacity="0.42" stroke-width="0.3"><path d="
M 195.00 117.00 
C 196.55 116.73 196.02 117.82 198.00 116.00
C 197.25 116.36 195.85 116.71 195.00 117.00 Z"/>
</g>
<g fill="None" fill-opacity="0.0" stroke="#B7B5BF" stroke-opacity="0.34" stroke-width="0.3"><path d="
M 177.00 125.00 
C 178.55 124.54 178.79 124.59 181.00 123.00
C 179.67 123.64 178.10 124.51 177.00 125.00 Z"/>
</g>
<g fill="None" fill-opacity="0.0" stroke="#DADBE2" stroke-opacity="0.46" stroke-width="0.3"><path d="
M 321.00 125.00 
C 320.79 124.91 319.27 124.14 319.00 124.00
C 319.00 124.00 320.07 124.76 321.00 125.00 Z"/>
</g>
<g fill="None" fill-opacity="0.0" stroke="#6A6472" stroke-opacity="0.05" stroke-width="0.3"><path d="
M 334.00 130.00 
C 332.05 128.78 330.34 127.78 328.00 127.00
C 329.72 127.79 332.12 129.12 334.00 130.00 Z"/>
</g>
<g fill="None" fill-opacity="0.0" stroke="#D1CFD5" stroke-opacity="0.49" stroke-width="0.3"><path d="
M 166.00 130.00 
C 166.35 129.86 168.25 128.81 168.00 129.00
C 167.65 129.22 166.29 129.86 166.00 130.00 Z"/>
</g>
<g fill="None" fill-opacity="0.0" stroke="#D4D1D8" stroke-opacity="0.35" stroke-width="0.3"><path d="
M 340.00 192.00 
C 340.00 192.00 340.00 191.50 340.00 191.00
C 340.00 186.00 340.00 181.00 340.00 176.00
C 340.00 174.33 340.00 172.67 340.00 171.00
C 340.00 168.02 339.84 164.98 340.00 162.00
C 340.21 158.12 340.99 154.92 341.00 151.00
C 340.94 150.09 340.98 147.79 341.00 147.00
C 340.77 143.71 340.75 139.27 340.00 136.00
C 340.64 140.75 337.68 149.35 339.00 155.00 C 340.32 160.65 337.62 168.69 339.00 174.00 C 340.38 179.31 336.19 188.33 340.00 192.00 Z"/>
</g>
<g fill="None" fill-opacity="0.0" stroke="#A59EAA" stroke-opacity="0.27" stroke-width="0.3"><path d="
M 166.00 142.00 
C 167.54 142.96 169.11 144.19 171.00 145.00
C 168.92 143.60 167.27 142.53 166.00 142.00 Z"/>
</g>
<g fill="None" fill-opacity="0.0" stroke="#D7D6DF" stroke-opacity="0.42" stroke-width="0.3"><path d="
M 321.00 147.00 
C 322.59 147.26 321.96 150.88 322.00 152.00
C 322.23 157.65 322.00 163.35 322.00 169.00
C 322.00 174.67 322.00 180.33 322.00 186.00
C 322.00 188.33 322.00 190.67 322.00 193.00
C 322.00 193.00 321.91 193.52 322.00 194.00
C 324.33 178.66 322.33 161.17 323.00 145.00
C 321.03 144.41 321.48 146.16 321.00 147.00 Z"/>
</g>
<g fill="None" fill-opacity="0.0" stroke="#4D4F6F" stroke-opacity="0.02" stroke-width="0.3"><path d="
M 320.00 148.00 
C 320.01 148.50 320.93 150.79 321.00 152.00
C 321.01 152.06 322.00 152.00 322.00 152.00
C 321.96 150.88 322.59 147.26 321.00 147.00
C 320.85 147.27 320.27 147.87 320.00 148.00 Z"/>
</g>
<g fill="None" fill-opacity="0.0" stroke="#5555AA" stroke-opacity="0.01" stroke-width="0.3"><path d="
M 341.00 151.00 
C 341.00 149.68 341.09 148.32 341.00 147.00
C 340.98 147.79 340.94 150.09 341.00 151.00 Z"/>
</g>
<g fill="None" fill-opacity="0.0" stroke="#C4C4D0" stroke-opacity="0.24" stroke-width="0.3"><path d="
M 162.00 152.00 
C 162.00 152.00 168.29 152.18 168.00 152.00
C 165.85 150.53 164.20 151.46 162.00 152.00 Z"/>
</g>
<g fill="None" fill-opacity="0.0" stroke="#FCFCFC" stroke-opacity="0.98" stroke-width="0.3"><path d="
M 132.00 163.00 
C 130.68 163.55 129.75 163.74 128.00 164.00
C 123.20 165.27 118.04 167.59 113.00 170.00
C 112.72 173.33 112.84 176.11 113.00 179.00
C 113.88 185.38 114.00 192.94 114.00 200.00
C 114.00 201.33 114.00 202.67 114.00 204.00
C 114.00 206.67 114.00 209.33 114.00 212.00
C 114.19 213.08 115.23 214.24 115.00 216.00
C 114.94 216.49 115.00 217.00 115.00 217.00
C 116.69 219.28 115.94 221.78 115.00 224.00
C 115.00 224.50 115.03 225.50 115.00 226.00
C 114.41 234.43 116.92 245.93 119.00 254.00
C 119.06 254.11 120.20 252.96 120.97 255.04 C 121.74 257.13 120.88 257.13 121.00 259.00
C 123.00 265.97 124.64 273.17 127.00 280.00
C 127.71 281.56 128.76 283.36 129.00 284.00
C 130.57 286.95 131.55 289.99 133.00 293.00
C 134.32 295.10 134.58 295.58 135.00 297.00
C 137.44 302.57 139.93 307.47 144.00 312.00
C 146.01 314.24 146.41 316.34 147.00 318.00
C 147.65 318.94 148.43 320.16 149.00 321.00
C 149.74 321.62 151.44 322.83 152.00 324.00
C 153.24 325.06 152.97 326.93 153.00 327.00
C 154.19 328.56 155.58 330.79 157.00 332.00
C 157.58 332.49 158.39 332.63 159.00 333.00
C 161.95 334.80 166.49 338.92 168.00 342.00
C 168.20 342.40 168.00 343.00 168.00 343.00
C 170.37 347.84 176.52 351.20 180.00 355.00
C 183.81 357.72 186.80 360.51 190.00 364.00
C 198.12 372.87 210.58 379.24 221.00 385.00
C 222.61 385.89 223.69 387.11 225.00 388.00
C 228.85 390.13 232.91 391.65 237.00 393.00
C 238.33 393.44 240.78 392.73 241.00 395.00
C 242.81 389.91 242.00 382.84 242.00 377.00
C 241.10 367.71 241.00 357.00 241.00 347.00
C 241.00 340.67 241.00 334.33 241.00 328.00
C 241.00 307.67 241.00 287.33 241.00 267.00
C 240.31 259.82 241.86 248.71 241.00 242.00
C 239.47 235.08 229.67 233.98 224.75 230.25 C 219.83 226.52 212.94 223.01 207.00 221.00
C 205.50 220.49 203.48 218.45 203.00 218.00
C 201.46 217.04 199.85 215.88 198.00 215.00
C 196.09 214.10 194.64 213.03 193.00 212.00
C 185.94 208.47 182.12 204.99 174.70 201.30 C 167.27 197.62 171.60 186.16 170.00 179.00 C 168.40 171.84 174.07 156.17 168.00 152.00
C 168.29 152.18 162.00 152.00 162.00 152.00
C 152.01 154.43 141.30 159.13 132.00 163.00 Z"/>
</g>
<g fill="None" fill-opacity="0.0" stroke="#5E5E5E" stroke-opacity="0.02" stroke-width="0.3"><path d="
M 321.00 169.00 
C 321.00 168.96 322.00 169.00 322.00 169.00
C 322.00 163.35 322.23 157.65 322.00 152.00
C 322.00 152.00 321.01 152.06 321.00 152.00
C 321.33 157.62 321.00 163.37 321.00 169.00 Z"/>
</g>
<g fill="None" fill-opacity="0.0" stroke="#B5B2BE" stroke-opacity="0.32" stroke-width="0.3"><path d="
M 301.00 157.00 
C 302.85 156.29 304.44 154.75 306.00 154.00
C 303.39 154.66 303.74 155.09 301.00 157.00 Z"/>
</g>
<g fill="None" fill-opacity="0.0" stroke="#2B567B" stroke-opacity="0.10" stroke-width="0.3"><path d="
M 349.00 158.00 
C 350.22 158.59 352.64 157.94 353.00 158.00
C 351.43 157.56 350.74 156.26 349.00 158.00 Z"/>
</g>
<g fill="None" fill-opacity="0.0" stroke="#A3A1AB" stroke-opacity="0.25" stroke-width="0.3"><path d="
M 293.00 161.00 
C 294.73 160.22 296.49 158.74 298.00 158.00
C 294.56 158.98 295.46 159.52 293.00 161.00 Z"/>
</g>
<g fill="None" fill-opacity="0.0" stroke="#3190CF" stroke-opacity="0.94" stroke-width="0.3"><path d="
M 348.00 177.00 
C 348.21 179.19 348.21 181.87 348.00 184.00
C 348.00 196.83 348.84 208.21 334.00 210.00
C 333.73 210.10 335.40 211.47 331.99 211.99 C 328.57 212.51 329.20 210.09 329.00 210.00
C 314.97 207.49 306.19 214.75 294.00 221.00
C 293.53 221.38 293.43 221.62 292.00 222.00
C 284.17 225.72 278.40 228.33 270.23 232.23 C 262.06 236.13 255.71 239.36 257.00 250.00 C 258.29 260.64 257.00 270.44 257.00 281.00
C 257.00 288.06 256.86 295.69 256.00 302.00
C 256.00 303.33 256.00 304.67 256.00 306.00
C 256.11 306.90 258.58 310.20 256.00 311.00
C 256.50 312.08 265.90 310.21 262.19 303.25 C 258.49 296.29 263.16 283.38 268.75 277.75 C 274.35 272.13 274.18 274.04 280.00 271.00
C 276.49 270.03 280.27 269.32 282.00 270.00
C 282.47 269.88 283.50 270.00 284.00 270.00
C 285.56 269.29 287.48 268.04 289.00 270.00
C 289.22 270.13 289.00 271.00 289.00 271.00
C 293.70 271.09 299.30 274.97 303.77 273.77 C 308.24 272.57 311.11 268.84 315.00 267.00
C 315.09 266.92 314.79 265.75 316.70 264.70 C 318.61 263.64 319.21 265.73 318.00 266.00
C 319.47 265.24 320.75 263.80 322.00 263.00
C 321.34 263.69 327.73 257.85 327.00 259.00
C 328.26 256.25 328.38 252.27 329.00 249.00
C 329.33 247.22 329.57 245.76 330.00 244.00
C 330.12 243.53 330.00 243.00 330.00 243.00
C 331.86 239.20 338.65 232.45 342.00 234.00
C 342.41 234.19 343.52 234.09 344.00 234.00
C 345.63 232.28 345.68 231.65 348.00 232.00
C 348.90 231.82 350.08 232.00 351.00 232.00
C 351.17 228.92 357.42 229.37 359.00 231.00
C 359.25 231.26 359.00 232.00 359.00 232.00
C 362.86 232.25 366.71 232.93 370.00 235.00
C 368.73 232.28 371.57 233.14 371.00 235.00
C 373.29 238.28 378.38 245.10 381.00 241.00
C 380.87 241.35 379.07 231.85 381.00 237.00
C 381.06 237.16 382.00 237.00 382.00 237.00
C 382.34 231.86 382.43 227.12 383.00 222.00
C 382.94 220.52 381.92 219.13 383.00 217.00
C 382.96 215.37 382.25 214.94 383.00 213.00
C 383.13 212.66 383.96 211.14 384.00 211.00
C 384.40 201.69 384.47 192.69 385.00 183.00 C 385.53 173.31 383.36 166.87 374.07 164.93 C 364.78 162.99 361.57 160.41 353.00 158.00
C 352.64 157.94 350.22 158.59 349.00 158.00
C 346.03 160.96 348.00 172.92 348.00 177.00 Z"/>
</g>
<g fill="None" fill-opacity="0.0" stroke="#808080" stroke-opacity="0.02" stroke-width="0.3"><path d="
M 340.00 171.00 
C 340.28 168.36 340.11 164.62 340.00 162.00
C 339.84 164.98 340.00 168.02 340.00 171.00 Z"/>
</g>
<g fill="None" fill-opacity="0.0" stroke="#A2A3AD" stroke-opacity="0.19" stroke-width="0.3"><path d="
M 128.00 164.00 
C 129.75 163.74 130.68 163.55 132.00 163.00
C 130.62 163.34 129.04 163.68 128.00 164.00 Z"/>
</g>
<g fill="None" fill-opacity="0.0" stroke="#66667C" stroke-opacity="0.04" stroke-width="0.3"><path d="
M 188.00 193.00 
C 187.96 192.50 188.00 191.50 188.00 191.00
C 188.00 183.67 188.00 176.33 188.00 169.00
C 185.17 169.98 187.77 178.15 187.00 181.00 C 186.23 183.85 187.21 190.51 188.00 193.00 Z"/>
</g>
<g fill="None" fill-opacity="0.0" stroke="#E0DFE7" stroke-opacity="0.62" stroke-width="0.3"><path d="
M 188.00 191.00 
C 189.70 186.99 186.56 171.72 191.00 170.00
C 190.12 169.66 189.03 168.64 188.00 169.00
C 188.00 176.33 188.00 183.67 188.00 191.00 Z"/>
</g>
<g fill="None" fill-opacity="0.0" stroke="#F8F8F9" stroke-opacity="0.94" stroke-width="0.3"><path d="
M 306.00 170.00 
C 308.01 169.50 302.35 171.20 303.00 171.00
C 293.89 175.11 284.82 179.82 276.00 184.00
C 274.69 185.01 273.96 186.67 272.00 187.00
C 271.03 187.16 269.97 186.82 269.00 187.00
C 261.87 188.30 256.48 194.61 249.00 195.00 C 241.52 195.39 235.70 190.21 229.00 188.00
C 226.91 187.31 226.65 187.02 225.00 186.00
C 213.47 180.85 202.68 174.47 191.00 170.00
C 186.56 171.72 189.70 186.99 188.00 191.00
C 188.00 191.50 187.96 192.50 188.00 193.00
C 188.39 197.43 191.85 198.79 195.00 201.00
C 196.60 201.92 197.57 202.87 199.00 204.00
C 209.75 210.76 219.00 211.17 230.77 219.23 C 242.54 227.29 252.25 227.24 265.00 221.00
C 267.27 219.30 267.34 219.46 269.00 219.00
C 270.19 218.42 271.93 217.50 273.00 217.00
C 274.92 215.68 274.65 216.29 276.00 216.00
C 284.10 212.64 293.28 209.12 301.00 205.00
C 302.37 204.14 306.04 200.28 307.00 199.00
C 309.67 194.82 310.28 187.18 309.33 182.67 C 308.38 178.16 313.21 167.82 306.00 170.00 Z"/>
</g>
<g fill="None" fill-opacity="0.0" stroke="#49496D" stroke-opacity="0.03" stroke-width="0.3"><path d="
M 321.00 186.00 
C 321.00 186.05 322.00 186.00 322.00 186.00
C 322.00 180.33 322.00 174.67 322.00 169.00
C 322.00 169.00 321.00 168.96 321.00 169.00
C 321.00 174.66 320.89 180.34 321.00 186.00 Z"/>
</g>
<g fill="None" fill-opacity="0.0" stroke="#DCDCE5" stroke-opacity="0.59" stroke-width="0.3"><path d="
M 303.00 171.00 
C 302.35 171.20 308.01 169.50 306.00 170.00
C 304.84 170.35 304.11 170.50 303.00 171.00 Z"/>
</g>
<g fill="None" fill-opacity="0.0" stroke="#BCBBC8" stroke-opacity="0.36" stroke-width="0.3"><path d="
M 266.00 173.00 
C 266.77 172.64 267.39 172.34 268.00 172.00
C 266.74 172.38 266.52 172.31 266.00 173.00 Z"/>
</g>
<g fill="None" fill-opacity="0.0" stroke="#A39DAB" stroke-opacity="0.25" stroke-width="0.3"><path d="
M 261.00 176.00 
C 262.08 175.51 263.14 174.42 264.00 174.00
C 262.43 174.16 262.91 174.72 261.00 176.00 Z"/>
</g>
<g fill="None" fill-opacity="0.0" stroke="#64779D" stroke-opacity="0.01" stroke-width="0.3"><path d="
M 340.00 191.00 
C 342.74 187.30 340.41 179.85 340.00 176.00
C 340.00 181.00 340.00 186.00 340.00 191.00 Z"/>
</g>
<g fill="None" fill-opacity="0.0" stroke="#404080" stroke-opacity="0.02" stroke-width="0.3"><path d="
M 348.00 184.00 
C 348.21 181.87 348.21 179.19 348.00 177.00
C 348.00 179.33 348.00 181.67 348.00 184.00 Z"/>
</g>
<g fill="None" fill-opacity="0.0" stroke="#D7D6DC" stroke-opacity="0.53" stroke-width="0.3"><path d="
M 113.00 183.00 
C 113.00 188.67 113.00 194.33 113.00 200.00
C 113.25 199.75 114.00 200.00 114.00 200.00
C 114.00 192.94 113.88 185.38 113.00 179.00
C 113.07 180.32 113.00 181.67 113.00 183.00 Z"/>
</g>
<g fill="None" fill-opacity="0.0" stroke="#DBDAE5" stroke-opacity="0.44" stroke-width="0.3"><path d="
M 245.00 180.00 
C 246.95 180.32 250.05 180.32 252.00 180.00
C 251.63 180.03 245.45 180.04 245.00 180.00 Z"/>
</g>
<g fill="None" fill-opacity="0.0" stroke="#4E4F60" stroke-opacity="0.04" stroke-width="0.3"><path d="
M 113.00 201.00 
C 113.00 200.50 113.00 200.00 113.00 200.00
C 113.00 194.33 113.00 188.67 113.00 183.00
C 112.23 188.62 111.74 195.28 113.00 201.00 Z"/>
</g>
<g fill="None" fill-opacity="0.0" stroke="#CCCBD6" stroke-opacity="0.41" stroke-width="0.3"><path d="
M 273.00 185.00 
C 272.74 185.25 272.18 186.91 272.00 187.00
C 273.96 186.67 274.69 185.01 276.00 184.00
C 275.15 184.40 273.94 184.61 273.00 185.00 Z"/>
</g>
<g fill="None" fill-opacity="0.0" stroke="#96999E" stroke-opacity="0.17" stroke-width="0.3"><path d="
M 269.00 187.00 
C 269.97 186.82 271.03 187.16 272.00 187.00
C 272.18 186.91 272.74 185.25 273.00 185.00
C 271.60 185.58 270.13 186.48 269.00 187.00 Z"/>
</g>
<g fill="None" fill-opacity="0.0" stroke="#9898B1" stroke-opacity="0.16" stroke-width="0.3"><path d="
M 229.00 188.00 
C 227.87 187.49 226.39 186.62 225.00 186.00
C 226.65 187.02 226.91 187.31 229.00 188.00 Z"/>
</g>
<g fill="None" fill-opacity="0.0" stroke="#575757" stroke-opacity="0.02" stroke-width="0.3"><path d="
M 322.00 193.00 
C 322.00 190.67 322.00 188.33 322.00 186.00
C 322.00 186.00 321.00 186.05 321.00 186.00
C 321.05 188.54 320.59 191.10 322.00 193.00 Z"/>
</g>
<g fill="None" fill-opacity="0.0" stroke="#837F8C" stroke-opacity="0.07" stroke-width="0.3"><path d="
M 301.00 205.00 
C 303.29 203.78 305.59 201.21 307.00 199.00
C 306.04 200.28 302.37 204.14 301.00 205.00 Z"/>
</g>
<g fill="None" fill-opacity="0.0" stroke="#D4D2DB" stroke-opacity="0.31" stroke-width="0.3"><path d="
M 113.00 201.00 
C 113.00 202.00 113.00 203.00 113.00 204.00
C 113.27 204.25 114.00 204.00 114.00 204.00
C 114.00 202.67 114.00 201.33 114.00 200.00
C 114.00 200.00 113.25 199.75 113.00 200.00
C 113.00 200.00 113.00 200.50 113.00 201.00 Z"/>
</g>
<g fill="None" fill-opacity="0.0" stroke="#6B6B75" stroke-opacity="0.03" stroke-width="0.3"><path d="
M 334.00 200.00 
C 332.58 200.24 330.43 200.19 329.00 200.00
C 331.26 200.68 331.66 200.82 334.00 200.00 Z"/>
</g>
<g fill="None" fill-opacity="0.0" stroke="#C0C0CE" stroke-opacity="0.28" stroke-width="0.3"><path d="
M 199.00 204.00 
C 197.57 202.87 196.60 201.92 195.00 201.00
C 196.24 201.87 197.53 203.08 199.00 204.00 Z"/>
</g>
<g fill="None" fill-opacity="0.0" stroke="#9A97A8" stroke-opacity="0.09" stroke-width="0.3"><path d="
M 114.00 213.00 
C 114.00 212.50 114.00 212.00 114.00 212.00
C 114.00 209.33 114.00 206.67 114.00 204.00
C 114.00 204.00 113.27 204.25 113.00 204.00
C 113.00 207.27 113.42 210.34 114.00 213.00 Z"/>
</g>
<g fill="None" fill-opacity="0.0" stroke="#397EA0" stroke-opacity="0.31" stroke-width="0.3"><path d="
M 334.00 210.00 
C 331.66 210.28 331.37 210.42 329.00 210.00
C 329.20 210.09 328.57 212.51 331.99 211.99 C 335.40 211.47 333.73 210.10 334.00 210.00 Z"/>
</g>
<g fill="None" fill-opacity="0.0" stroke="#467FB0" stroke-opacity="0.24" stroke-width="0.3"><path d="
M 383.00 213.00 
C 383.00 214.60 383.33 213.99 384.00 215.00
C 384.00 213.67 383.94 212.33 384.00 211.00
C 383.96 211.14 383.13 212.66 383.00 213.00 Z"/>
</g>
<g fill="None" fill-opacity="0.0" stroke="#DEDFE6" stroke-opacity="0.45" stroke-width="0.3"><path d="
M 114.00 213.00 
C 114.00 214.00 114.00 215.00 114.00 216.00
C 114.27 216.25 115.00 216.00 115.00 216.00
C 115.23 214.24 114.19 213.08 114.00 212.00
C 114.00 212.00 114.00 212.50 114.00 213.00 Z"/>
</g>
<g fill="None" fill-opacity="0.0" stroke="#434D75" stroke-opacity="0.04" stroke-width="0.3"><path d="
M 198.00 215.00 
C 196.47 214.11 194.80 212.90 193.00 212.00
C 194.64 213.03 196.09 214.10 198.00 215.00 Z"/>
</g>
<g fill="None" fill-opacity="0.0" stroke="#3D85BB" stroke-opacity="0.63" stroke-width="0.3"><path d="
M 383.00 217.00 
C 383.17 216.67 383.88 216.26 384.00 216.00
C 384.00 216.00 384.00 215.50 384.00 215.00
C 383.33 213.99 383.00 214.60 383.00 213.00
C 382.25 214.94 382.96 215.37 383.00 217.00 Z"/>
</g>
<g fill="None" fill-opacity="0.0" stroke="#CACAD3" stroke-opacity="0.37" stroke-width="0.3"><path d="
M 273.00 217.00 
C 273.86 216.60 275.05 216.39 276.00 216.00
C 274.65 216.29 274.92 215.68 273.00 217.00 Z"/>
</g>
<g fill="None" fill-opacity="0.0" stroke="#BABDC7" stroke-opacity="0.22" stroke-width="0.3"><path d="
M 114.00 220.00 
C 114.13 220.22 115.00 220.00 115.00 220.00
C 115.00 219.00 115.00 218.00 115.00 217.00
C 115.00 217.00 114.94 216.49 115.00 216.00
C 115.00 216.00 114.27 216.25 114.00 216.00
C 114.00 217.33 113.99 218.67 114.00 220.00 Z"/>
</g>
<g fill="None" fill-opacity="0.0" stroke="#2B6C8D" stroke-opacity="0.16" stroke-width="0.3"><path d="
M 383.00 217.00 
C 381.92 219.13 382.94 220.52 383.00 222.00
C 383.23 219.92 384.27 218.42 384.00 216.00
C 383.88 216.26 383.17 216.67 383.00 217.00 Z"/>
</g>
<g fill="None" fill-opacity="0.0" stroke="#F2F3F6" stroke-opacity="0.74" stroke-width="0.3"><path d="
M 115.00 220.00 
C 115.00 221.33 115.00 222.67 115.00 224.00
C 115.94 221.78 116.69 219.28 115.00 217.00
C 115.00 218.00 115.00 219.00 115.00 220.00 Z"/>
</g>
<g fill="None" fill-opacity="0.0" stroke="#DCDCE6" stroke-opacity="0.46" stroke-width="0.3"><path d="
M 207.00 221.00 
C 205.87 220.33 204.34 218.84 203.00 218.00
C 203.48 218.45 205.50 220.49 207.00 221.00 Z"/>
</g>
<g fill="None" fill-opacity="0.0" stroke="#C8C8D3" stroke-opacity="0.41" stroke-width="0.3"><path d="
M 265.00 221.00 
C 266.23 220.40 267.88 219.55 269.00 219.00
C 267.34 219.46 267.27 219.30 265.00 221.00 Z"/>
</g>
<g fill="None" fill-opacity="0.0" stroke="#666A72" stroke-opacity="0.05" stroke-width="0.3"><path d="
M 115.00 226.00 
C 115.03 225.50 115.00 224.50 115.00 224.00
C 115.00 222.67 115.00 221.33 115.00 220.00
C 115.00 220.00 114.13 220.22 114.00 220.00
C 114.01 222.23 114.75 224.40 115.00 226.00 Z"/>
</g>
<g fill="None" fill-opacity="0.0" stroke="#32799F" stroke-opacity="0.32" stroke-width="0.3"><path d="
M 292.00 222.00 
C 293.43 221.62 293.53 221.38 294.00 221.00
C 293.47 221.27 292.40 221.81 292.00 222.00 Z"/>
</g>
<g fill="None" fill-opacity="0.0" stroke="#4480AD" stroke-opacity="0.35" stroke-width="0.3"><path d="
M 351.00 232.00 
C 351.00 232.00 351.50 232.00 352.00 232.00
C 353.62 230.80 356.73 230.58 359.00 231.00
C 357.42 229.37 351.17 228.92 351.00 232.00 Z"/>
</g>
<g fill="None" fill-opacity="0.0" stroke="#386C95" stroke-opacity="0.17" stroke-width="0.3"><path d="
M 344.00 234.00 
C 345.33 233.76 347.03 232.20 348.00 232.00
C 345.68 231.65 345.63 232.28 344.00 234.00 Z"/>
</g>
<g fill="None" fill-opacity="0.0" stroke="#020A57" stroke-opacity="0.01" stroke-width="0.3"><path d="
M 352.00 232.00 
C 354.32 232.00 356.69 231.85 359.00 232.00
C 359.00 232.00 359.25 231.26 359.00 231.00
C 356.73 230.58 353.62 230.80 352.00 232.00 Z"/>
</g>
<g fill="None" fill-opacity="0.0" stroke="#3C8DC3" stroke-opacity="0.71" stroke-width="0.3"><path d="
M 330.00 243.00 
C 333.26 240.71 336.31 235.27 340.00 234.00
C 340.45 233.85 341.93 233.83 342.00 234.00
C 338.65 232.45 331.86 239.20 330.00 243.00 Z"/>
</g>
<g fill="None" fill-opacity="0.0" stroke="#4187BD" stroke-opacity="0.55" stroke-width="0.3"><path d="
M 370.00 235.00 
C 370.00 235.00 370.84 234.77 371.00 235.00
C 371.57 233.14 368.73 232.28 370.00 235.00 Z"/>
</g>
<g fill="None" fill-opacity="0.0" stroke="#4284B5" stroke-opacity="0.28" stroke-width="0.3"><path d="
M 330.00 243.00 
C 330.00 243.00 330.12 243.53 330.00 244.00
C 334.23 242.24 336.63 236.61 340.00 234.00
C 336.31 235.27 333.26 240.71 330.00 243.00 Z"/>
</g>
<g fill="None" fill-opacity="0.0" stroke="#25547F" stroke-opacity="0.05" stroke-width="0.3"><path d="
M 330.00 244.00 
C 329.57 245.76 329.33 247.22 329.00 249.00
C 330.43 244.60 337.28 236.00 342.00 234.00
C 341.93 233.83 340.45 233.85 340.00 234.00
C 336.63 236.61 334.23 242.24 330.00 244.00 Z"/>
</g>
<g fill="None" fill-opacity="0.0" stroke="#3982BB" stroke-opacity="0.72" stroke-width="0.3"><path d="
M 381.00 241.00 
C 381.45 239.94 380.41 237.98 381.00 237.00
C 379.07 231.85 380.87 241.35 381.00 241.00 Z"/>
</g>
<g fill="None" fill-opacity="0.0" stroke="#1C4E83" stroke-opacity="0.07" stroke-width="0.3"><path d="
M 381.00 241.00 
C 381.94 239.53 381.87 239.00 382.00 237.00
C 382.00 237.00 381.06 237.16 381.00 237.00
C 380.41 237.98 381.45 239.94 381.00 241.00 Z"/>
</g>
<g fill="None" fill-opacity="0.0" stroke="#348FCF" stroke-opacity="0.91" stroke-width="0.3"><path d="
M 335.00 264.00 
C 335.05 264.23 335.79 264.70 336.00 265.00
C 337.98 267.88 338.35 270.68 336.00 273.00
C 341.27 271.80 343.46 276.69 348.99 278.01 C 354.53 279.33 360.10 278.56 365.00 276.00
C 364.98 276.02 371.83 270.15 372.00 270.00
C 378.45 261.41 375.92 248.55 368.00 242.00
C 367.40 241.66 365.80 240.50 365.00 240.00
C 349.10 233.41 330.91 245.59 335.00 264.00 Z"/>
</g>
<g fill="None" fill-opacity="0.0" stroke="#2C748F" stroke-opacity="0.19" stroke-width="0.3"><path d="
M 368.00 242.00 
C 367.06 241.22 366.29 240.54 365.00 240.00
C 365.80 240.50 367.40 241.66 368.00 242.00 Z"/>
</g>
<g fill="None" fill-opacity="0.0" stroke="#DFDDE2" stroke-opacity="0.45" stroke-width="0.3"><path d="
M 241.00 267.00 
C 241.00 264.01 240.88 260.99 241.00 258.00
C 241.07 256.37 241.95 253.91 242.00 253.00
C 241.72 249.78 241.72 245.25 241.00 242.00
C 241.86 248.71 240.31 259.82 241.00 267.00 Z"/>
</g>
<g fill="None" fill-opacity="0.0" stroke="#CACAD1" stroke-opacity="0.46" stroke-width="0.3"><path d="
M 119.00 254.00 
C 119.43 255.66 120.62 257.67 121.00 259.00
C 120.88 257.13 121.74 257.13 120.97 255.04 C 120.20 252.96 119.06 254.11 119.00 254.00 Z"/>
</g>
<g fill="None" fill-opacity="0.0" stroke="#5555AA" stroke-opacity="0.01" stroke-width="0.3"><path d="
M 241.00 258.00 
C 241.00 257.96 242.00 258.00 242.00 258.00
C 242.00 256.35 242.14 254.64 242.00 253.00
C 241.95 253.91 241.07 256.37 241.00 258.00 Z"/>
</g>
<g fill="None" fill-opacity="0.0" stroke="#787A85" stroke-opacity="0.07" stroke-width="0.3"><path d="
M 241.00 267.00 
C 241.00 287.33 241.00 307.67 241.00 328.00
C 241.00 327.96 242.00 328.00 242.00 328.00
C 242.00 304.67 242.00 281.33 242.00 258.00
C 242.00 258.00 241.00 257.96 241.00 258.00
C 240.88 260.99 241.00 264.01 241.00 267.00 Z"/>
</g>
<g fill="None" fill-opacity="0.0" stroke="#3C77A7" stroke-opacity="0.34" stroke-width="0.3"><path d="
M 322.00 263.00 
C 324.34 261.50 325.80 261.63 327.00 259.00
C 327.73 257.85 321.34 263.69 322.00 263.00 Z"/>
</g>
<g fill="None" fill-opacity="0.0" stroke="#3D77AD" stroke-opacity="0.44" stroke-width="0.3"><path d="
M 315.00 267.00 
C 315.94 266.55 316.99 266.52 318.00 266.00
C 319.21 265.73 318.61 263.64 316.70 264.70 C 314.79 265.75 315.09 266.92 315.00 267.00 Z"/>
</g>
<g fill="None" fill-opacity="0.0" stroke="#808EA7" stroke-opacity="0.13" stroke-width="0.3"><path d="
M 332.00 266.00 
C 332.37 265.86 335.91 265.22 336.00 265.00
C 335.79 264.70 335.05 264.23 335.00 264.00
C 333.95 263.88 332.62 265.60 332.00 266.00 Z"/>
</g>
<g fill="None" fill-opacity="0.0" stroke="#F5F6F7" stroke-opacity="0.92" stroke-width="0.3"><path d="
M 332.00 266.00 
C 328.94 267.13 326.48 269.20 324.00 271.00
C 322.26 272.26 321.94 271.69 321.00 272.00
C 316.52 274.34 312.09 277.31 308.00 280.00
C 306.65 280.89 305.92 281.88 304.00 282.00
C 304.00 282.00 303.35 281.77 303.00 282.00
C 301.17 285.23 300.83 282.95 299.00 282.00
C 293.16 279.91 286.07 274.64 279.75 278.75 C 273.42 282.85 270.68 286.21 269.00 293.00
C 268.74 295.26 269.00 297.72 269.00 300.00
C 271.15 301.88 272.24 305.57 274.00 308.00
C 274.69 308.95 276.09 311.46 277.00 312.00
C 277.37 312.22 278.50 312.01 279.00 312.00
C 281.91 311.93 280.68 313.46 282.00 314.00
C 286.60 314.91 293.21 314.03 297.00 312.00
C 298.71 310.84 298.26 308.49 301.00 308.00
C 301.88 305.87 302.43 302.78 304.00 301.00
C 303.73 297.99 304.22 295.33 305.00 293.00
C 306.95 287.14 314.30 284.43 319.75 281.75 C 325.21 279.08 330.08 274.35 336.00 273.00
C 338.35 270.68 337.98 267.88 336.00 265.00
C 335.91 265.22 332.37 265.86 332.00 266.00 Z"/>
</g>
<g fill="None" fill-opacity="0.0" stroke="#3280B6" stroke-opacity="0.68" stroke-width="0.3"><path d="
M 280.00 271.00 
C 280.00 271.00 280.50 271.00 281.00 271.00
C 281.26 270.88 281.65 270.09 282.00 270.00
C 280.27 269.32 276.49 270.03 280.00 271.00 Z"/>
</g>
<g fill="None" fill-opacity="0.0" stroke="#3175A7" stroke-opacity="0.49" stroke-width="0.3"><path d="
M 284.00 270.00 
C 284.50 270.00 285.00 270.00 285.00 270.00
C 285.85 270.00 288.29 269.57 289.00 270.00
C 287.48 268.04 285.56 269.29 284.00 270.00 Z"/>
</g>
<g fill="None" fill-opacity="0.0" stroke="#376B9F" stroke-opacity="0.36" stroke-width="0.3"><path d="
M 365.00 276.00 
C 367.92 274.47 369.86 272.85 372.00 270.00
C 371.83 270.15 364.98 276.02 365.00 276.00 Z"/>
</g>
<g fill="None" fill-opacity="0.0" stroke="#2C5A8A" stroke-opacity="0.11" stroke-width="0.3"><path d="
M 281.00 271.00 
C 282.33 271.00 283.67 271.00 285.00 271.00
C 284.78 270.87 285.00 270.00 285.00 270.00
C 285.00 270.00 284.50 270.00 284.00 270.00
C 283.50 270.00 282.47 269.88 282.00 270.00
C 281.65 270.09 281.26 270.88 281.00 271.00 Z"/>
</g>
<g fill="None" fill-opacity="0.0" stroke="#002857" stroke-opacity="0.03" stroke-width="0.3"><path d="
M 285.00 271.00 
C 286.33 271.00 287.67 270.97 289.00 271.00
C 289.00 271.00 289.22 270.13 289.00 270.00
C 288.29 269.57 285.85 270.00 285.00 270.00
C 285.00 270.00 284.78 270.87 285.00 271.00 Z"/>
</g>
<g fill="None" fill-opacity="0.0" stroke="#CFCFDB" stroke-opacity="0.42" stroke-width="0.3"><path d="
M 321.00 272.00 
C 321.94 271.69 322.26 272.26 324.00 271.00
C 323.12 271.45 321.98 271.49 321.00 272.00 Z"/>
</g>
<g fill="None" fill-opacity="0.0" stroke="#ABABB4" stroke-opacity="0.29" stroke-width="0.3"><path d="
M 129.00 284.00 
C 128.76 283.36 127.71 281.56 127.00 280.00
C 127.57 281.65 128.17 282.44 129.00 284.00 Z"/>
</g>
<g fill="None" fill-opacity="0.0" stroke="#A3A4A9" stroke-opacity="0.20" stroke-width="0.3"><path d="
M 304.00 282.00 
C 305.92 281.88 306.65 280.89 308.00 280.00
C 306.43 280.77 305.27 280.69 304.00 282.00 Z"/>
</g>
<g fill="None" fill-opacity="0.0" stroke="#1A4A76" stroke-opacity="0.06" stroke-width="0.3"><path d="
M 256.00 302.00 
C 256.86 295.69 257.00 288.06 257.00 281.00
C 256.39 287.28 256.00 294.97 256.00 302.00 Z"/>
</g>
<g fill="None" fill-opacity="0.0" stroke="#826E8D" stroke-opacity="0.05" stroke-width="0.3"><path d="
M 303.00 282.00 
C 301.25 283.16 300.73 282.62 299.00 282.00
C 300.83 282.95 301.17 285.23 303.00 282.00 Z"/>
</g>
<g fill="None" fill-opacity="0.0" stroke="#BEBDC8" stroke-opacity="0.35" stroke-width="0.3"><path d="
M 135.00 297.00 
C 134.58 295.58 134.32 295.10 133.00 293.00
C 133.65 294.36 134.39 295.61 135.00 297.00 Z"/>
</g>
<g fill="None" fill-opacity="0.0" stroke="#9E9AAE" stroke-opacity="0.11" stroke-width="0.3"><path d="
M 269.00 301.00 
C 268.89 300.53 269.00 300.00 269.00 300.00
C 269.00 297.72 268.74 295.26 269.00 293.00
C 268.26 295.97 268.14 297.95 269.00 301.00 Z"/>
</g>
<g fill="None" fill-opacity="0.0" stroke="#DCDCEE" stroke-opacity="0.49" stroke-width="0.3"><path d="
M 304.00 301.00 
C 304.22 300.75 305.00 301.00 305.00 301.00
C 305.43 300.29 305.00 297.85 305.00 297.00
C 305.00 295.67 305.00 294.33 305.00 293.00
C 304.22 295.33 303.73 297.99 304.00 301.00 Z"/>
</g>
<g fill="None" fill-opacity="0.0" stroke="#57585E" stroke-opacity="0.03" stroke-width="0.3"><path d="
M 305.00 297.00 
C 305.09 296.24 304.96 293.54 305.00 293.00
C 305.00 294.33 305.00 295.67 305.00 297.00 Z"/>
</g>
<g fill="None" fill-opacity="0.0" stroke="#B6B8C3" stroke-opacity="0.34" stroke-width="0.3"><path d="
M 269.00 301.00 
C 269.45 302.93 270.46 306.60 272.00 308.00
C 272.17 307.76 273.63 307.78 274.00 308.00
C 272.24 305.57 271.15 301.88 269.00 300.00
C 269.00 300.00 268.89 300.53 269.00 301.00 Z"/>
</g>
<g fill="None" fill-opacity="0.0" stroke="#286CB2" stroke-opacity="0.75" stroke-width="0.3"><path d="
M 301.00 308.00 
C 300.82 308.43 301.00 309.00 301.00 309.00
C 309.41 313.49 318.07 318.69 326.00 324.00
C 326.15 324.01 326.70 322.96 327.00 323.00
C 326.17 322.04 324.74 323.39 325.00 321.00
C 326.60 320.44 329.03 320.50 330.00 319.00
C 328.21 317.13 325.60 314.37 324.00 313.00
C 321.07 311.18 318.06 309.64 315.00 308.00
C 313.29 307.08 312.48 306.17 311.00 305.00
C 308.92 303.69 306.72 302.68 305.00 301.00
C 305.00 301.00 304.22 300.75 304.00 301.00
C 302.43 302.78 301.88 305.87 301.00 308.00 Z"/>
</g>
<g fill="None" fill-opacity="0.0" stroke="#0A526D" stroke-opacity="0.05" stroke-width="0.3"><path d="
M 315.00 308.00 
C 313.76 307.18 312.45 305.91 311.00 305.00
C 312.48 306.17 313.29 307.08 315.00 308.00 Z"/>
</g>
<g fill="None" fill-opacity="0.0" stroke="#3471A7" stroke-opacity="0.37" stroke-width="0.3"><path d="
M 256.00 311.00 
C 258.58 310.20 256.11 306.90 256.00 306.00
C 256.00 307.25 255.49 309.89 256.00 311.00 Z"/>
</g>
<g fill="None" fill-opacity="0.0" stroke="#043B81" stroke-opacity="0.21" stroke-width="0.3"><path d="
M 347.00 308.00 
C 347.98 308.01 352.12 307.98 353.00 308.00
C 350.72 307.57 349.30 307.63 347.00 308.00 Z"/>
</g>
<g fill="None" fill-opacity="0.0" stroke="#307EBA" stroke-opacity="0.73" stroke-width="0.3"><path d="
M 259.00 320.00 
C 258.74 320.33 258.73 320.60 257.75 322.75 C 256.77 324.90 253.97 323.46 255.00 323.00
C 250.17 325.59 247.01 331.92 250.00 337.00
C 251.93 336.83 252.74 334.91 254.00 334.00
C 255.22 332.50 255.80 332.06 258.00 331.00
C 263.34 326.86 268.82 322.13 274.00 318.00
C 274.15 317.83 276.11 313.11 277.00 312.00
C 276.09 311.46 274.69 308.95 274.00 308.00
C 273.63 307.78 272.17 307.76 272.00 308.00
C 268.92 312.35 263.43 316.32 259.00 320.00 Z"/>
</g>
<g fill="None" fill-opacity="0.0" stroke="#A6A4B7" stroke-opacity="0.29" stroke-width="0.3"><path d="
M 297.00 312.00 
C 298.36 311.27 299.80 310.03 301.00 309.00
C 301.00 309.00 300.82 308.43 301.00 308.00
C 298.26 308.49 298.71 310.84 297.00 312.00 Z"/>
</g>
<g fill="None" fill-opacity="0.0" stroke="#1951AC" stroke-opacity="0.91" stroke-width="0.3"><path d="
M 340.00 310.00 
C 339.75 310.25 339.32 310.80 339.00 311.00
C 336.98 313.59 333.77 318.19 331.00 319.00
C 330.54 319.14 330.00 319.00 330.00 319.00
C 329.03 320.50 326.60 320.44 325.00 321.00
C 324.74 323.39 326.17 322.04 327.00 323.00
C 327.69 323.80 328.66 325.02 329.00 326.00
C 331.61 333.63 331.77 344.34 342.33 346.67 C 352.89 349.00 360.65 346.35 366.00 338.00
C 366.22 337.48 368.26 334.62 368.00 335.00
C 373.95 322.64 365.70 310.39 353.00 308.00
C 352.12 307.98 347.98 308.01 347.00 308.00
C 344.45 308.41 341.81 308.15 340.00 310.00 Z"/>
</g>
<g fill="None" fill-opacity="0.0" stroke="#194881" stroke-opacity="0.11" stroke-width="0.3"><path d="
M 324.00 313.00 
C 325.60 314.37 328.21 317.13 330.00 319.00
C 330.00 319.00 330.54 319.14 331.00 319.00
C 333.02 316.11 336.03 312.83 339.00 311.00
C 339.32 310.80 339.75 310.25 340.00 310.00
C 332.07 313.97 332.75 318.42 324.00 313.00 Z"/>
</g>
<g fill="None" fill-opacity="0.0" stroke="#1E4B95" stroke-opacity="0.45" stroke-width="0.3"><path d="
M 331.00 319.00 
C 333.77 318.19 336.98 313.59 339.00 311.00
C 336.03 312.83 333.02 316.11 331.00 319.00 Z"/>
</g>
<g fill="None" fill-opacity="0.0" stroke="#E7E6EF" stroke-opacity="0.55" stroke-width="0.3"><path d="
M 144.00 314.00 
C 144.78 315.25 146.93 316.07 147.00 318.00
C 146.41 316.34 146.01 314.24 144.00 312.00
C 144.24 312.30 143.91 313.52 144.00 314.00 Z"/>
</g>
<g fill="None" fill-opacity="0.0" stroke="#3A6D9B" stroke-opacity="0.24" stroke-width="0.3"><path d="
M 274.00 318.00 
C 275.75 316.61 277.94 315.16 279.00 313.00
C 279.20 312.60 279.00 312.00 279.00 312.00
C 278.50 312.01 277.37 312.22 277.00 312.00
C 276.11 313.11 274.15 317.83 274.00 318.00 Z"/>
</g>
<g fill="None" fill-opacity="0.0" stroke="#A7ABC1" stroke-opacity="0.37" stroke-width="0.3"><path d="
M 279.00 313.00 
C 279.32 313.20 281.54 313.91 282.00 314.00
C 280.68 313.46 281.91 311.93 279.00 312.00
C 279.00 312.00 279.20 312.60 279.00 313.00 Z"/>
</g>
<g fill="None" fill-opacity="0.0" stroke="#88828A" stroke-opacity="0.08" stroke-width="0.3"><path d="
M 147.00 318.00 
C 146.93 316.07 144.78 315.25 144.00 314.00
C 144.39 315.98 146.05 316.63 147.00 318.00 Z"/>
</g>
<g fill="None" fill-opacity="0.0" stroke="#D5D4DD" stroke-opacity="0.45" stroke-width="0.3"><path d="
M 149.00 321.00 
C 149.38 321.56 149.62 322.39 150.00 323.00
C 150.50 323.50 151.52 323.59 152.00 324.00
C 151.44 322.83 149.74 321.62 149.00 321.00 Z"/>
</g>
<g fill="None" fill-opacity="0.0" stroke="#2F6EA3" stroke-opacity="0.39" stroke-width="0.3"><path d="
M 255.00 323.00 
C 253.97 323.46 256.77 324.90 257.75 322.75 C 258.73 320.60 258.74 320.33 259.00 320.00
C 257.80 321.00 256.25 321.97 255.00 323.00 Z"/>
</g>
<g fill="None" fill-opacity="0.0" stroke="#919197" stroke-opacity="0.12" stroke-width="0.3"><path d="
M 153.00 327.00 
C 152.97 326.93 153.24 325.06 152.00 324.00
C 151.52 323.59 150.50 323.50 150.00 323.00
C 150.86 324.37 151.99 325.68 153.00 327.00 Z"/>
</g>
<g fill="None" fill-opacity="0.0" stroke="#0E347C" stroke-opacity="0.08" stroke-width="0.3"><path d="
M 326.00 324.00 
C 326.46 324.31 328.68 325.49 329.00 326.00
C 328.66 325.02 327.69 323.80 327.00 323.00
C 326.70 322.96 326.15 324.01 326.00 324.00 Z"/>
</g>
<g fill="None" fill-opacity="0.0" stroke="#D2CFD9" stroke-opacity="0.29" stroke-width="0.3"><path d="
M 241.00 347.00 
C 241.00 346.96 242.00 347.00 242.00 347.00
C 242.00 346.00 242.00 345.00 242.00 344.00
C 242.00 342.00 242.00 340.00 242.00 338.00
C 242.00 334.67 242.00 331.33 242.00 328.00
C 242.00 328.00 241.00 327.96 241.00 328.00
C 241.00 334.33 241.00 340.67 241.00 347.00 Z"/>
</g>
<g fill="None" fill-opacity="0.0" stroke="#2D699A" stroke-opacity="0.36" stroke-width="0.3"><path d="
M 254.00 334.00 
C 255.31 333.05 256.82 331.92 258.00 331.00
C 255.80 332.06 255.22 332.50 254.00 334.00 Z"/>
</g>
<g fill="None" fill-opacity="0.0" stroke="#89838E" stroke-opacity="0.07" stroke-width="0.3"><path d="
M 162.00 337.00 
C 160.96 335.91 160.08 333.93 159.00 333.00
C 158.39 332.63 157.58 332.49 157.00 332.00
C 158.49 333.73 160.43 335.32 162.00 337.00 Z"/>
</g>
<g fill="None" fill-opacity="0.0" stroke="#F0EEF5" stroke-opacity="0.72" stroke-width="0.3"><path d="
M 162.00 337.00 
C 163.67 338.73 166.06 340.65 168.00 342.00
C 166.49 338.92 161.95 334.80 159.00 333.00
C 160.08 333.93 160.96 335.91 162.00 337.00 Z"/>
</g>
<g fill="None" fill-opacity="0.0" stroke="#20478B" stroke-opacity="0.37" stroke-width="0.3"><path d="
M 366.00 338.00 
C 366.60 337.06 367.42 336.20 368.00 335.00
C 368.26 334.62 366.22 337.48 366.00 338.00 Z"/>
</g>
<g fill="None" fill-opacity="0.0" stroke="#D1D0DC" stroke-opacity="0.33" stroke-width="0.3"><path d="
M 163.00 339.00 
C 164.36 340.46 166.63 341.63 168.00 343.00
C 168.00 343.00 168.20 342.40 168.00 342.00
C 166.06 340.65 163.67 338.73 162.00 337.00
C 162.33 337.35 162.71 338.52 163.00 339.00 Z"/>
</g>
<g fill="None" fill-opacity="0.0" stroke="#000080" stroke-opacity="0.01" stroke-width="0.3"><path d="
M 242.00 344.00 
C 242.27 343.75 243.00 344.00 243.00 344.00
C 242.94 341.90 242.17 339.47 242.00 338.00
C 242.00 340.00 242.00 342.00 242.00 344.00 Z"/>
</g>
<g fill="None" fill-opacity="0.0" stroke="#80808B" stroke-opacity="0.09" stroke-width="0.3"><path d="
M 182.00 358.00 
C 181.23 357.18 180.72 355.78 180.00 355.00
C 176.52 351.20 170.37 347.84 168.00 343.00
C 166.63 341.63 164.36 340.46 163.00 339.00
C 167.10 345.74 175.79 353.10 182.00 358.00 Z"/>
</g>
<g fill="None" fill-opacity="0.0" stroke="#474747" stroke-opacity="0.02" stroke-width="0.3"><path d="
M 242.00 347.00 
C 242.00 349.67 242.00 352.33 242.00 355.00
C 242.00 354.96 243.00 355.00 243.00 355.00
C 243.00 351.34 243.10 347.66 243.00 344.00
C 243.00 344.00 242.27 343.75 242.00 344.00
C 242.00 345.00 242.00 346.00 242.00 347.00 Z"/>
</g>
<g fill="None" fill-opacity="0.0" stroke="#204B8E" stroke-opacity="0.55" stroke-width="0.3"><path d="
M 269.00 386.00 
C 268.88 387.29 270.13 387.91 270.00 389.00
C 291.57 377.86 314.52 363.89 329.00 344.00
C 308.56 356.26 288.66 371.96 269.00 386.00 Z"/>
</g>
<g fill="None" fill-opacity="0.0" stroke="#E7E7ED" stroke-opacity="0.50" stroke-width="0.3"><path d="
M 242.00 377.00 
C 242.00 376.00 242.00 375.00 242.00 374.00
C 242.00 367.67 242.00 361.33 242.00 355.00
C 242.00 352.33 242.00 349.67 242.00 347.00
C 242.00 347.00 241.00 346.96 241.00 347.00
C 241.00 357.00 241.10 367.71 242.00 377.00 Z"/>
</g>
<g fill="None" fill-opacity="0.0" stroke="#D5D5DB" stroke-opacity="0.42" stroke-width="0.3"><path d="
M 182.00 358.00 
C 184.61 360.06 187.45 361.80 190.00 364.00
C 186.80 360.51 183.81 357.72 180.00 355.00
C 180.72 355.78 181.23 357.18 182.00 358.00 Z"/>
</g>
<g fill="None" fill-opacity="0.0" stroke="#333455" stroke-opacity="0.03" stroke-width="0.3"><path d="
M 242.00 374.00 
C 242.27 373.75 243.00 374.00 243.00 374.00
C 243.00 367.67 243.00 361.33 243.00 355.00
C 243.00 355.00 242.00 354.96 242.00 355.00
C 242.00 361.33 242.00 367.67 242.00 374.00 Z"/>
</g>
<g fill="None" fill-opacity="0.0" stroke="#AAAAB8" stroke-opacity="0.10" stroke-width="0.3"><path d="
M 242.00 377.00 
C 242.00 382.84 242.81 389.91 241.00 395.00
C 244.48 395.20 243.00 378.31 243.00 374.00
C 243.00 374.00 242.27 373.75 242.00 374.00
C 242.00 375.00 242.00 376.00 242.00 377.00 Z"/>
</g>
<g fill="None" fill-opacity="0.0" stroke="#83818C" stroke-opacity="0.07" stroke-width="0.3"><path d="
M 225.00 388.00 
C 223.69 387.11 222.61 385.89 221.00 385.00
C 222.31 385.89 223.39 387.11 225.00 388.00 Z"/>
</g>
<g fill="None" fill-opacity="0.0" stroke="#2A487E" stroke-opacity="0.29" stroke-width="0.3"><path d="
M 270.00 389.00 
C 270.13 387.91 268.88 387.29 269.00 386.00
C 264.48 388.30 259.13 390.57 256.00 395.00
C 260.75 395.91 265.87 391.18 270.00 389.00 Z"/>
</g>
<g fill="None" fill-opacity="0.0" stroke="#C3BFCF" stroke-opacity="0.45" stroke-width="0.3"><path d="
M 241.00 395.00 
C 240.78 392.73 238.33 393.44 237.00 393.00
C 237.96 393.43 239.64 394.92 241.00 395.00 Z"/>
</g>
<g fill="#000000" fill-opacity="0.00" stroke="None">
<path d="
M 0.00 500.00 
L 500.00 500.00
L 500.00 0.00
L 0.00 0.00
L 0.00 500.00
M 267.00 101.00 
C 268.37 101.59 269.60 102.32 271.00 103.00
C 278.34 106.58 286.72 109.78 294.00 113.00
C 295.54 113.68 297.36 114.32 299.00 115.00
C 305.84 117.84 312.60 120.70 319.00 124.00
C 319.27 124.14 320.79 124.91 321.00 125.00
C 323.16 125.92 325.73 126.24 328.00 127.00
C 330.34 127.78 332.05 128.78 334.00 130.00
C 336.57 131.61 339.24 132.66 340.00 136.00
C 340.75 139.27 340.77 143.71 341.00 147.00
C 341.09 148.32 341.00 149.68 341.00 151.00
C 340.99 154.92 340.21 158.12 340.00 162.00
C 340.11 164.62 340.28 168.36 340.00 171.00
C 340.00 172.67 340.00 174.33 340.00 176.00
C 340.41 179.85 342.74 187.30 340.00 191.00
C 340.00 191.50 340.00 192.00 340.00 192.00
C 339.92 196.04 337.59 198.73 334.00 200.00
C 331.66 200.82 331.26 200.68 329.00 200.00
C 325.79 199.57 322.63 197.27 322.00 194.00
C 321.91 193.52 322.00 193.00 322.00 193.00
C 320.59 191.10 321.05 188.54 321.00 186.00
C 320.89 180.34 321.00 174.66 321.00 169.00
C 321.00 163.37 321.33 157.62 321.00 152.00
C 320.93 150.79 320.01 148.50 320.00 148.00
C 315.49 150.22 310.41 151.89 306.00 154.00
C 304.44 154.75 302.85 156.29 301.00 157.00
C 300.15 157.33 298.93 157.74 298.00 158.00
C 296.49 158.74 294.73 160.22 293.00 161.00
C 284.89 164.67 275.88 167.59 268.00 172.00
C 267.39 172.34 266.77 172.64 266.00 173.00
C 265.57 173.21 264.59 173.71 264.00 174.00
C 263.14 174.42 262.08 175.51 261.00 176.00
C 258.26 177.25 255.02 179.50 252.00 180.00
C 250.05 180.32 246.95 180.32 245.00 180.00
C 232.40 177.90 220.51 167.06 208.33 162.67 C 196.14 158.28 183.41 150.36 171.00 145.00
C 169.11 144.19 167.54 142.96 166.00 142.00
C 159.99 138.24 159.22 133.37 166.00 130.00
C 166.29 129.86 167.65 129.22 168.00 129.00
C 170.77 127.28 173.79 126.44 177.00 125.00
C 178.10 124.51 179.67 123.64 181.00 123.00
C 185.48 120.82 190.03 118.72 195.00 117.00
C 195.85 116.71 197.25 116.36 198.00 116.00
C 198.88 115.19 198.75 115.38 200.00 115.00
C 201.29 114.24 203.66 113.14 204.00 113.00
C 207.06 111.26 209.82 110.06 213.00 109.00
C 213.87 108.71 215.22 108.36 216.00 108.00
C 217.72 107.21 220.19 106.05 222.00 105.00
C 222.90 104.48 223.88 103.53 225.00 103.00
C 240.69 95.50 250.74 93.96 267.00 101.00
M 168.00 152.00 
C 174.07 156.17 168.40 171.84 170.00 179.00 C 171.60 186.16 167.27 197.62 174.70 201.30 C 182.12 204.99 185.94 208.47 193.00 212.00
C 194.80 212.90 196.47 214.11 198.00 215.00
C 199.85 215.88 201.46 217.04 203.00 218.00
C 204.34 218.84 205.87 220.33 207.00 221.00
C 212.94 223.01 219.83 226.52 224.75 230.25 C 229.67 233.98 239.47 235.08 241.00 242.00
C 241.72 245.25 241.72 249.78 242.00 253.00
C 242.14 254.64 242.00 256.35 242.00 258.00
C 242.00 281.33 242.00 304.67 242.00 328.00
C 242.00 331.33 242.00 334.67 242.00 338.00
C 242.17 339.47 242.94 341.90 243.00 344.00
C 243.10 347.66 243.00 351.34 243.00 355.00
C 243.00 361.33 243.00 367.67 243.00 374.00
C 243.00 378.31 244.48 395.20 241.00 395.00
C 239.64 394.92 237.96 393.43 237.00 393.00
C 232.91 391.65 228.85 390.13 225.00 388.00
C 223.39 387.11 222.31 385.89 221.00 385.00
C 210.58 379.24 198.12 372.87 190.00 364.00
C 187.45 361.80 184.61 360.06 182.00 358.00
C 175.79 353.10 167.10 345.74 163.00 339.00
C 162.71 338.52 162.33 337.35 162.00 337.00
C 160.43 335.32 158.49 333.73 157.00 332.00
C 155.58 330.79 154.19 328.56 153.00 327.00
C 151.99 325.68 150.86 324.37 150.00 323.00
C 149.62 322.39 149.38 321.56 149.00 321.00
C 148.43 320.16 147.65 318.94 147.00 318.00
C 146.05 316.63 144.39 315.98 144.00 314.00
C 143.91 313.52 144.24 312.30 144.00 312.00
C 139.93 307.47 137.44 302.57 135.00 297.00
C 134.39 295.61 133.65 294.36 133.00 293.00
C 131.55 289.99 130.57 286.95 129.00 284.00
C 128.17 282.44 127.57 281.65 127.00 280.00
C 124.64 273.17 123.00 265.97 121.00 259.00
C 120.62 257.67 119.43 255.66 119.00 254.00
C 116.92 245.93 114.41 234.43 115.00 226.00
C 114.75 224.40 114.01 222.23 114.00 220.00
C 113.99 218.67 114.00 217.33 114.00 216.00
C 114.00 215.00 114.00 214.00 114.00 213.00
C 113.42 210.34 113.00 207.27 113.00 204.00
C 113.00 203.00 113.00 202.00 113.00 201.00
C 111.74 195.28 112.23 188.62 113.00 183.00
C 113.00 181.67 113.07 180.32 113.00 179.00
C 112.84 176.11 112.72 173.33 113.00 170.00
C 118.04 167.59 123.20 165.27 128.00 164.00
C 129.04 163.68 130.62 163.34 132.00 163.00
C 141.30 159.13 152.01 154.43 162.00 152.00
C 164.20 151.46 165.85 150.53 168.00 152.00
M 353.00 158.00 
C 361.57 160.41 364.78 162.99 374.07 164.93 C 383.36 166.87 385.53 173.31 385.00 183.00 C 384.47 192.69 384.40 201.69 384.00 211.00
C 383.94 212.33 384.00 213.67 384.00 215.00
C 384.00 215.50 384.00 216.00 384.00 216.00
C 384.27 218.42 383.23 219.92 383.00 222.00
C 382.43 227.12 382.34 231.86 382.00 237.00
C 381.87 239.00 381.94 239.53 381.00 241.00
C 378.38 245.10 373.29 238.28 371.00 235.00
C 370.84 234.77 370.00 235.00 370.00 235.00
C 366.71 232.93 362.86 232.25 359.00 232.00
C 356.69 231.85 354.32 232.00 352.00 232.00
C 351.50 232.00 351.00 232.00 351.00 232.00
C 350.08 232.00 348.90 231.82 348.00 232.00
C 347.03 232.20 345.33 233.76 344.00 234.00
C 343.52 234.09 342.41 234.19 342.00 234.00
C 337.28 236.00 330.43 244.60 329.00 249.00
C 328.38 252.27 328.26 256.25 327.00 259.00
C 325.80 261.63 324.34 261.50 322.00 263.00
C 320.75 263.80 319.47 265.24 318.00 266.00
C 316.99 266.52 315.94 266.55 315.00 267.00
C 311.11 268.84 308.24 272.57 303.77 273.77 C 299.30 274.97 293.70 271.09 289.00 271.00
C 287.67 270.97 286.33 271.00 285.00 271.00
C 283.67 271.00 282.33 271.00 281.00 271.00
C 280.50 271.00 280.00 271.00 280.00 271.00
C 274.18 274.04 274.35 272.13 268.75 277.75 C 263.16 283.38 258.49 296.29 262.19 303.25 C 265.90 310.21 256.50 312.08 256.00 311.00
C 255.49 309.89 256.00 307.25 256.00 306.00
C 256.00 304.67 256.00 303.33 256.00 302.00
C 256.00 294.97 256.39 287.28 257.00 281.00
C 257.00 270.44 258.29 260.64 257.00 250.00 C 255.71 239.36 262.06 236.13 270.23 232.23 C 278.40 228.33 284.17 225.72 292.00 222.00
C 292.40 221.81 293.47 221.27 294.00 221.00
C 306.19 214.75 314.97 207.49 329.00 210.00
C 331.37 210.42 331.66 210.28 334.00 210.00
C 348.84 208.21 348.00 196.83 348.00 184.00
C 348.00 181.67 348.00 179.33 348.00 177.00
C 348.00 172.92 346.03 160.96 349.00 158.00
C 350.74 156.26 351.43 157.56 353.00 158.00
M 191.00 170.00 
C 202.68 174.47 213.47 180.85 225.00 186.00
C 226.39 186.62 227.87 187.49 229.00 188.00
C 235.70 190.21 241.52 195.39 249.00 195.00 C 256.48 194.61 261.87 188.30 269.00 187.00
C 270.13 186.48 271.60 185.58 273.00 185.00
C 273.94 184.61 275.15 184.40 276.00 184.00
C 284.82 179.82 293.89 175.11 303.00 171.00
C 304.11 170.50 304.84 170.35 306.00 170.00
C 313.21 167.82 308.38 178.16 309.33 182.67 C 310.28 187.18 309.67 194.82 307.00 199.00
C 305.59 201.21 303.29 203.78 301.00 205.00
C 293.28 209.12 284.10 212.64 276.00 216.00
C 275.05 216.39 273.86 216.60 273.00 217.00
C 271.93 217.50 270.19 218.42 269.00 219.00
C 267.88 219.55 266.23 220.40 265.00 221.00
C 252.25 227.24 242.54 227.29 230.77 219.23 C 219.00 211.17 209.75 210.76 199.00 204.00
C 197.53 203.08 196.24 201.87 195.00 201.00
C 191.85 198.79 188.39 197.43 188.00 193.00
C 187.21 190.51 186.23 183.85 187.00 181.00 C 187.77 178.15 185.17 169.98 188.00 169.00
C 189.03 168.64 190.12 169.66 191.00 170.00
M 365.00 240.00 
C 366.29 240.54 367.06 241.22 368.00 242.00
C 375.92 248.55 378.45 261.41 372.00 270.00
C 369.86 272.85 367.92 274.47 365.00 276.00
C 360.10 278.56 354.53 279.33 348.99 278.01 C 343.46 276.69 341.27 271.80 336.00 273.00
C 330.08 274.35 325.21 279.08 319.75 281.75 C 314.30 284.43 306.95 287.14 305.00 293.00
C 304.96 293.54 305.09 296.24 305.00 297.00
C 305.00 297.85 305.43 300.29 305.00 301.00
C 306.72 302.68 308.92 303.69 311.00 305.00
C 312.45 305.91 313.76 307.18 315.00 308.00
C 318.06 309.64 321.07 311.18 324.00 313.00
C 332.75 318.42 332.07 313.97 340.00 310.00
C 341.81 308.15 344.45 308.41 347.00 308.00
C 349.30 307.63 350.72 307.57 353.00 308.00
C 365.70 310.39 373.95 322.64 368.00 335.00
C 367.42 336.20 366.60 337.06 366.00 338.00
C 360.65 346.35 352.89 349.00 342.33 346.67 C 331.77 344.34 331.61 333.63 329.00 326.00
C 328.68 325.49 326.46 324.31 326.00 324.00
C 318.07 318.69 309.41 313.49 301.00 309.00
C 299.80 310.03 298.36 311.27 297.00 312.00
C 293.21 314.03 286.60 314.91 282.00 314.00
C 281.54 313.91 279.32 313.20 279.00 313.00
C 277.94 315.16 275.75 316.61 274.00 318.00
C 268.82 322.13 263.34 326.86 258.00 331.00
C 256.82 331.92 255.31 333.05 254.00 334.00
C 252.74 334.91 251.93 336.83 250.00 337.00
C 247.01 331.92 250.17 325.59 255.00 323.00
C 256.25 321.97 257.80 321.00 259.00 320.00
C 263.43 316.32 268.92 312.35 272.00 308.00
C 270.46 306.60 269.45 302.93 269.00 301.00
C 268.14 297.95 268.26 295.97 269.00 293.00
C 270.68 286.21 273.42 282.85 279.75 278.75 C 286.07 274.64 293.16 279.91 299.00 282.00
C 300.73 282.62 301.25 283.16 303.00 282.00
C 303.35 281.77 304.00 282.00 304.00 282.00
C 305.27 280.69 306.43 280.77 308.00 280.00
C 312.09 277.31 316.52 274.34 321.00 272.00
C 321.98 271.49 323.12 271.45 324.00 271.00
C 326.48 269.20 328.94 267.13 332.00 266.00
C 332.62 265.60 333.95 263.88 335.00 264.00
C 330.91 245.59 349.10 233.41 365.00 240.00
M 270.00 389.00 
C 265.87 391.18 260.75 395.91 256.00 395.00
C 259.13 390.57 264.48 388.30 269.00 386.00
C 288.66 371.96 308.56 356.26 329.00 344.00
C 314.52 363.89 291.57 377.86 270.00 389.00 Z"/>
</g>
<g fill="#FBFBFB" fill-opacity="0.97" stroke="None">
<path d="
M 225.00 103.00 
C 223.20 104.30 223.68 104.48 222.00 105.00
C 220.19 106.05 217.72 107.21 216.00 108.00
C 214.05 109.25 214.44 108.74 213.00 109.00
C 209.82 110.06 207.06 111.26 204.00 113.00
C 202.43 113.89 201.71 114.47 200.00 115.00
C 198.75 115.38 198.88 115.19 198.00 116.00
C 196.02 117.82 196.55 116.73 195.00 117.00
C 190.03 118.72 185.48 120.82 181.00 123.00
C 178.79 124.59 178.55 124.54 177.00 125.00
C 173.79 126.44 170.77 127.28 168.00 129.00
C 168.25 128.81 166.35 129.86 166.00 130.00
C 159.22 133.37 159.99 138.24 166.00 142.00
C 167.27 142.53 168.92 143.60 171.00 145.00
C 183.41 150.36 196.14 158.28 208.33 162.67 C 220.51 167.06 232.40 177.90 245.00 180.00
C 245.45 180.04 251.63 180.03 252.00 180.00
C 255.02 179.50 258.26 177.25 261.00 176.00
C 262.91 174.72 262.43 174.16 264.00 174.00
C 264.59 173.71 265.57 173.21 266.00 173.00
C 266.52 172.31 266.74 172.38 268.00 172.00
C 275.88 167.59 284.89 164.67 293.00 161.00
C 295.46 159.52 294.56 158.98 298.00 158.00
C 298.93 157.74 300.15 157.33 301.00 157.00
C 303.74 155.09 303.39 154.66 306.00 154.00
C 310.41 151.89 315.49 150.22 320.00 148.00
C 320.27 147.87 320.85 147.27 321.00 147.00
C 321.48 146.16 321.03 144.41 323.00 145.00
C 322.33 161.17 324.33 178.66 322.00 194.00
C 322.63 197.27 325.79 199.57 329.00 200.00
C 330.43 200.19 332.58 200.24 334.00 200.00
C 337.59 198.73 339.92 196.04 340.00 192.00
C 336.19 188.33 340.38 179.31 339.00 174.00 C 337.62 168.69 340.32 160.65 339.00 155.00 C 337.68 149.35 340.64 140.75 340.00 136.00
C 339.24 132.66 336.57 131.61 334.00 130.00
C 332.12 129.12 329.72 127.79 328.00 127.00
C 325.73 126.24 323.16 125.92 321.00 125.00
C 320.07 124.76 319.00 124.00 319.00 124.00
C 312.60 120.70 305.84 117.84 299.00 115.00
C 297.51 114.64 295.95 114.18 294.00 113.00
C 286.72 109.78 278.34 106.58 271.00 103.00
C 269.68 102.61 268.91 102.10 267.00 101.00
C 250.74 93.96 240.69 95.50 225.00 103.00 Z"/>
</g>
<g fill="#BFBEC9" fill-opacity="0.33" stroke="None">
<path d="
M 271.00 103.00 
C 269.60 102.32 268.37 101.59 267.00 101.00
C 268.91 102.10 269.68 102.61 271.00 103.00 Z"/>
</g>
<g fill="#B6B2C2" fill-opacity="0.35" stroke="None">
<path d="
M 222.00 105.00 
C 223.68 104.48 223.20 104.30 225.00 103.00
C 223.88 103.53 222.90 104.48 222.00 105.00 Z"/>
</g>
<g fill="#D1D1DD" fill-opacity="0.44" stroke="None">
<path d="
M 213.00 109.00 
C 214.44 108.74 214.05 109.25 216.00 108.00
C 215.22 108.36 213.87 108.71 213.00 109.00 Z"/>
</g>
<g fill="#A3A3AC" fill-opacity="0.15" stroke="None">
<path d="
M 200.00 115.00 
C 201.71 114.47 202.43 113.89 204.00 113.00
C 203.66 113.14 201.29 114.24 200.00 115.00 Z"/>
</g>
<g fill="#CECEDB" fill-opacity="0.33" stroke="None">
<path d="
M 299.00 115.00 
C 297.36 114.32 295.54 113.68 294.00 113.00
C 295.95 114.18 297.51 114.64 299.00 115.00 Z"/>
</g>
<g fill="#C7CAD3" fill-opacity="0.42" stroke="None">
<path d="
M 195.00 117.00 
C 196.55 116.73 196.02 117.82 198.00 116.00
C 197.25 116.36 195.85 116.71 195.00 117.00 Z"/>
</g>
<g fill="#B7B5BF" fill-opacity="0.34" stroke="None">
<path d="
M 177.00 125.00 
C 178.55 124.54 178.79 124.59 181.00 123.00
C 179.67 123.64 178.10 124.51 177.00 125.00 Z"/>
</g>
<g fill="#DADBE2" fill-opacity="0.46" stroke="None">
<path d="
M 321.00 125.00 
C 320.79 124.91 319.27 124.14 319.00 124.00
C 319.00 124.00 320.07 124.76 321.00 125.00 Z"/>
</g>
<g fill="#6A6472" fill-opacity="0.05" stroke="None">
<path d="
M 334.00 130.00 
C 332.05 128.78 330.34 127.78 328.00 127.00
C 329.72 127.79 332.12 129.12 334.00 130.00 Z"/>
</g>
<g fill="#D1CFD5" fill-opacity="0.49" stroke="None">
<path d="
M 166.00 130.00 
C 166.35 129.86 168.25 128.81 168.00 129.00
C 167.65 129.22 166.29 129.86 166.00 130.00 Z"/>
</g>
<g fill="#D4D1D8" fill-opacity="0.35" stroke="None">
<path d="
M 340.00 192.00 
C 340.00 192.00 340.00 191.50 340.00 191.00
C 340.00 186.00 340.00 181.00 340.00 176.00
C 340.00 174.33 340.00 172.67 340.00 171.00
C 340.00 168.02 339.84 164.98 340.00 162.00
C 340.21 158.12 340.99 154.92 341.00 151.00
C 340.94 150.09 340.98 147.79 341.00 147.00
C 340.77 143.71 340.75 139.27 340.00 136.00
C 340.64 140.75 337.68 149.35 339.00 155.00 C 340.32 160.65 337.62 168.69 339.00 174.00 C 340.38 179.31 336.19 188.33 340.00 192.00 Z"/>
</g>
<g fill="#A59EAA" fill-opacity="0.27" stroke="None">
<path d="
M 166.00 142.00 
C 167.54 142.96 169.11 144.19 171.00 145.00
C 168.92 143.60 167.27 142.53 166.00 142.00 Z"/>
</g>
<g fill="#D7D6DF" fill-opacity="0.42" stroke="None">
<path d="
M 321.00 147.00 
C 322.59 147.26 321.96 150.88 322.00 152.00
C 322.23 157.65 322.00 163.35 322.00 169.00
C 322.00 174.67 322.00 180.33 322.00 186.00
C 322.00 188.33 322.00 190.67 322.00 193.00
C 322.00 193.00 321.91 193.52 322.00 194.00
C 324.33 178.66 322.33 161.17 323.00 145.00
C 321.03 144.41 321.48 146.16 321.00 147.00 Z"/>
</g>
<g fill="#4D4F6F" fill-opacity="0.02" stroke="None">
<path d="
M 320.00 148.00 
C 320.01 148.50 320.93 150.79 321.00 152.00
C 321.01 152.06 322.00 152.00 322.00 152.00
C 321.96 150.88 322.59 147.26 321.00 147.00
C 320.85 147.27 320.27 147.87 320.00 148.00 Z"/>
</g>
<g fill="#5555AA" fill-opacity="0.01" stroke="None">
<path d="
M 341.00 151.00 
C 341.00 149.68 341.09 148.32 341.00 147.00
C 340.98 147.79 340.94 150.09 341.00 151.00 Z"/>
</g>
<g fill="#C4C4D0" fill-opacity="0.24" stroke="None">
<path d="
M 162.00 152.00 
C 162.00 152.00 168.29 152.18 168.00 152.00
C 165.85 150.53 164.20 151.46 162.00 152.00 Z"/>
</g>
<g fill="#FCFCFC" fill-opacity="0.98" stroke="None">
<path d="
M 132.00 163.00 
C 130.68 163.55 129.75 163.74 128.00 164.00
C 123.20 165.27 118.04 167.59 113.00 170.00
C 112.72 173.33 112.84 176.11 113.00 179.00
C 113.88 185.38 114.00 192.94 114.00 200.00
C 114.00 201.33 114.00 202.67 114.00 204.00
C 114.00 206.67 114.00 209.33 114.00 212.00
C 114.19 213.08 115.23 214.24 115.00 216.00
C 114.94 216.49 115.00 217.00 115.00 217.00
C 116.69 219.28 115.94 221.78 115.00 224.00
C 115.00 224.50 115.03 225.50 115.00 226.00
C 114.41 234.43 116.92 245.93 119.00 254.00
C 119.06 254.11 120.20 252.96 120.97 255.04 C 121.74 257.13 120.88 257.13 121.00 259.00
C 123.00 265.97 124.64 273.17 127.00 280.00
C 127.71 281.56 128.76 283.36 129.00 284.00
C 130.57 286.95 131.55 289.99 133.00 293.00
C 134.32 295.10 134.58 295.58 135.00 297.00
C 137.44 302.57 139.93 307.47 144.00 312.00
C 146.01 314.24 146.41 316.34 147.00 318.00
C 147.65 318.94 148.43 320.16 149.00 321.00
C 149.74 321.62 151.44 322.83 152.00 324.00
C 153.24 325.06 152.97 326.93 153.00 327.00
C 154.19 328.56 155.58 330.79 157.00 332.00
C 157.58 332.49 158.39 332.63 159.00 333.00
C 161.95 334.80 166.49 338.92 168.00 342.00
C 168.20 342.40 168.00 343.00 168.00 343.00
C 170.37 347.84 176.52 351.20 180.00 355.00
C 183.81 357.72 186.80 360.51 190.00 364.00
C 198.12 372.87 210.58 379.24 221.00 385.00
C 222.61 385.89 223.69 387.11 225.00 388.00
C 228.85 390.13 232.91 391.65 237.00 393.00
C 238.33 393.44 240.78 392.73 241.00 395.00
C 242.81 389.91 242.00 382.84 242.00 377.00
C 241.10 367.71 241.00 357.00 241.00 347.00
C 241.00 340.67 241.00 334.33 241.00 328.00
C 241.00 307.67 241.00 287.33 241.00 267.00
C 240.31 259.82 241.86 248.71 241.00 242.00
C 239.47 235.08 229.67 233.98 224.75 230.25 C 219.83 226.52 212.94 223.01 207.00 221.00
C 205.50 220.49 203.48 218.45 203.00 218.00
C 201.46 217.04 199.85 215.88 198.00 215.00
C 196.09 214.10 194.64 213.03 193.00 212.00
C 185.94 208.47 182.12 204.99 174.70 201.30 C 167.27 197.62 171.60 186.16 170.00 179.00 C 168.40 171.84 174.07 156.17 168.00 152.00
C 168.29 152.18 162.00 152.00 162.00 152.00
C 152.01 154.43 141.30 159.13 132.00 163.00 Z"/>
</g>
<g fill="#5E5E5E" fill-opacity="0.02" stroke="None">
<path d="
M 321.00 169.00 
C 321.00 168.96 322.00 169.00 322.00 169.00
C 322.00 163.35 322.23 157.65 322.00 152.00
C 322.00 152.00 321.01 152.06 321.00 152.00
C 321.33 157.62 321.00 163.37 321.00 169.00 Z"/>
</g>
<g fill="#B5B2BE" fill-opacity="0.32" stroke="None">
<path d="
M 301.00 157.00 
C 302.85 156.29 304.44 154.75 306.00 154.00
C 303.39 154.66 303.74 155.09 301.00 157.00 Z"/>
</g>
<g fill="#2B567B" fill-opacity="0.10" stroke="None">
<path d="
M 349.00 158.00 
C 350.22 158.59 352.64 157.94 353.00 158.00
C 351.43 157.56 350.74 156.26 349.00 158.00 Z"/>
</g>
<g fill="#A3A1AB" fill-opacity="0.25" stroke="None">
<path d="
M 293.00 161.00 
C 294.73 160.22 296.49 158.74 298.00 158.00
C 294.56 158.98 295.46 159.52 293.00 161.00 Z"/>
</g>
<g fill="#3190CF" fill-opacity="0.94" stroke="None">
<path d="
M 348.00 177.00 
C 348.21 179.19 348.21 181.87 348.00 184.00
C 348.00 196.83 348.84 208.21 334.00 210.00
C 333.73 210.10 335.40 211.47 331.99 211.99 C 328.57 212.51 329.20 210.09 329.00 210.00
C 314.97 207.49 306.19 214.75 294.00 221.00
C 293.53 221.38 293.43 221.62 292.00 222.00
C 284.17 225.72 278.40 228.33 270.23 232.23 C 262.06 236.13 255.71 239.36 257.00 250.00 C 258.29 260.64 257.00 270.44 257.00 281.00
C 257.00 288.06 256.86 295.69 256.00 302.00
C 256.00 303.33 256.00 304.67 256.00 306.00
C 256.11 306.90 258.58 310.20 256.00 311.00
C 256.50 312.08 265.90 310.21 262.19 303.25 C 258.49 296.29 263.16 283.38 268.75 277.75 C 274.35 272.13 274.18 274.04 280.00 271.00
C 276.49 270.03 280.27 269.32 282.00 270.00
C 282.47 269.88 283.50 270.00 284.00 270.00
C 285.56 269.29 287.48 268.04 289.00 270.00
C 289.22 270.13 289.00 271.00 289.00 271.00
C 293.70 271.09 299.30 274.97 303.77 273.77 C 308.24 272.57 311.11 268.84 315.00 267.00
C 315.09 266.92 314.79 265.75 316.70 264.70 C 318.61 263.64 319.21 265.73 318.00 266.00
C 319.47 265.24 320.75 263.80 322.00 263.00
C 321.34 263.69 327.73 257.85 327.00 259.00
C 328.26 256.25 328.38 252.27 329.00 249.00
C 329.33 247.22 329.57 245.76 330.00 244.00
C 330.12 243.53 330.00 243.00 330.00 243.00
C 331.86 239.20 338.65 232.45 342.00 234.00
C 342.41 234.19 343.52 234.09 344.00 234.00
C 345.63 232.28 345.68 231.65 348.00 232.00
C 348.90 231.82 350.08 232.00 351.00 232.00
C 351.17 228.92 357.42 229.37 359.00 231.00
C 359.25 231.26 359.00 232.00 359.00 232.00
C 362.86 232.25 366.71 232.93 370.00 235.00
C 368.73 232.28 371.57 233.14 371.00 235.00
C 373.29 238.28 378.38 245.10 381.00 241.00
C 380.87 241.35 379.07 231.85 381.00 237.00
C 381.06 237.16 382.00 237.00 382.00 237.00
C 382.34 231.86 382.43 227.12 383.00 222.00
C 382.94 220.52 381.92 219.13 383.00 217.00
C 382.96 215.37 382.25 214.94 383.00 213.00
C 383.13 212.66 383.96 211.14 384.00 211.00
C 384.40 201.69 384.47 192.69 385.00 183.00 C 385.53 173.31 383.36 166.87 374.07 164.93 C 364.78 162.99 361.57 160.41 353.00 158.00
C 352.64 157.94 350.22 158.59 349.00 158.00
C 346.03 160.96 348.00 172.92 348.00 177.00 Z"/>
</g>
<g fill="#808080" fill-opacity="0.02" stroke="None">
<path d="
M 340.00 171.00 
C 340.28 168.36 340.11 164.62 340.00 162.00
C 339.84 164.98 340.00 168.02 340.00 171.00 Z"/>
</g>
<g fill="#A2A3AD" fill-opacity="0.19" stroke="None">
<path d="
M 128.00 164.00 
C 129.75 163.74 130.68 163.55 132.00 163.00
C 130.62 163.34 129.04 163.68 128.00 164.00 Z"/>
</g>
<g fill="#66667C" fill-opacity="0.04" stroke="None">
<path d="
M 188.00 193.00 
C 187.96 192.50 188.00 191.50 188.00 191.00
C 188.00 183.67 188.00 176.33 188.00 169.00
C 185.17 169.98 187.77 178.15 187.00 181.00 C 186.23 183.85 187.21 190.51 188.00 193.00 Z"/>
</g>
<g fill="#E0DFE7" fill-opacity="0.62" stroke="None">
<path d="
M 188.00 191.00 
C 189.70 186.99 186.56 171.72 191.00 170.00
C 190.12 169.66 189.03 168.64 188.00 169.00
C 188.00 176.33 188.00 183.67 188.00 191.00 Z"/>
</g>
<g fill="#F8F8F9" fill-opacity="0.94" stroke="None">
<path d="
M 306.00 170.00 
C 308.01 169.50 302.35 171.20 303.00 171.00
C 293.89 175.11 284.82 179.82 276.00 184.00
C 274.69 185.01 273.96 186.67 272.00 187.00
C 271.03 187.16 269.97 186.82 269.00 187.00
C 261.87 188.30 256.48 194.61 249.00 195.00 C 241.52 195.39 235.70 190.21 229.00 188.00
C 226.91 187.31 226.65 187.02 225.00 186.00
C 213.47 180.85 202.68 174.47 191.00 170.00
C 186.56 171.72 189.70 186.99 188.00 191.00
C 188.00 191.50 187.96 192.50 188.00 193.00
C 188.39 197.43 191.85 198.79 195.00 201.00
C 196.60 201.92 197.57 202.87 199.00 204.00
C 209.75 210.76 219.00 211.17 230.77 219.23 C 242.54 227.29 252.25 227.24 265.00 221.00
C 267.27 219.30 267.34 219.46 269.00 219.00
C 270.19 218.42 271.93 217.50 273.00 217.00
C 274.92 215.68 274.65 216.29 276.00 216.00
C 284.10 212.64 293.28 209.12 301.00 205.00
C 302.37 204.14 306.04 200.28 307.00 199.00
C 309.67 194.82 310.28 187.18 309.33 182.67 C 308.38 178.16 313.21 167.82 306.00 170.00 Z"/>
</g>
<g fill="#49496D" fill-opacity="0.03" stroke="None">
<path d="
M 321.00 186.00 
C 321.00 186.05 322.00 186.00 322.00 186.00
C 322.00 180.33 322.00 174.67 322.00 169.00
C 322.00 169.00 321.00 168.96 321.00 169.00
C 321.00 174.66 320.89 180.34 321.00 186.00 Z"/>
</g>
<g fill="#DCDCE5" fill-opacity="0.59" stroke="None">
<path d="
M 303.00 171.00 
C 302.35 171.20 308.01 169.50 306.00 170.00
C 304.84 170.35 304.11 170.50 303.00 171.00 Z"/>
</g>
<g fill="#BCBBC8" fill-opacity="0.36" stroke="None">
<path d="
M 266.00 173.00 
C 266.77 172.64 267.39 172.34 268.00 172.00
C 266.74 172.38 266.52 172.31 266.00 173.00 Z"/>
</g>
<g fill="#A39DAB" fill-opacity="0.25" stroke="None">
<path d="
M 261.00 176.00 
C 262.08 175.51 263.14 174.42 264.00 174.00
C 262.43 174.16 262.91 174.72 261.00 176.00 Z"/>
</g>
<g fill="#64779D" fill-opacity="0.01" stroke="None">
<path d="
M 340.00 191.00 
C 342.74 187.30 340.41 179.85 340.00 176.00
C 340.00 181.00 340.00 186.00 340.00 191.00 Z"/>
</g>
<g fill="#404080" fill-opacity="0.02" stroke="None">
<path d="
M 348.00 184.00 
C 348.21 181.87 348.21 179.19 348.00 177.00
C 348.00 179.33 348.00 181.67 348.00 184.00 Z"/>
</g>
<g fill="#D7D6DC" fill-opacity="0.53" stroke="None">
<path d="
M 113.00 183.00 
C 113.00 188.67 113.00 194.33 113.00 200.00
C 113.25 199.75 114.00 200.00 114.00 200.00
C 114.00 192.94 113.88 185.38 113.00 179.00
C 113.07 180.32 113.00 181.67 113.00 183.00 Z"/>
</g>
<g fill="#DBDAE5" fill-opacity="0.44" stroke="None">
<path d="
M 245.00 180.00 
C 246.95 180.32 250.05 180.32 252.00 180.00
C 251.63 180.03 245.45 180.04 245.00 180.00 Z"/>
</g>
<g fill="#4E4F60" fill-opacity="0.04" stroke="None">
<path d="
M 113.00 201.00 
C 113.00 200.50 113.00 200.00 113.00 200.00
C 113.00 194.33 113.00 188.67 113.00 183.00
C 112.23 188.62 111.74 195.28 113.00 201.00 Z"/>
</g>
<g fill="#CCCBD6" fill-opacity="0.41" stroke="None">
<path d="
M 273.00 185.00 
C 272.74 185.25 272.18 186.91 272.00 187.00
C 273.96 186.67 274.69 185.01 276.00 184.00
C 275.15 184.40 273.94 184.61 273.00 185.00 Z"/>
</g>
<g fill="#96999E" fill-opacity="0.17" stroke="None">
<path d="
M 269.00 187.00 
C 269.97 186.82 271.03 187.16 272.00 187.00
C 272.18 186.91 272.74 185.25 273.00 185.00
C 271.60 185.58 270.13 186.48 269.00 187.00 Z"/>
</g>
<g fill="#9898B1" fill-opacity="0.16" stroke="None">
<path d="
M 229.00 188.00 
C 227.87 187.49 226.39 186.62 225.00 186.00
C 226.65 187.02 226.91 187.31 229.00 188.00 Z"/>
</g>
<g fill="#575757" fill-opacity="0.02" stroke="None">
<path d="
M 322.00 193.00 
C 322.00 190.67 322.00 188.33 322.00 186.00
C 322.00 186.00 321.00 186.05 321.00 186.00
C 321.05 188.54 320.59 191.10 322.00 193.00 Z"/>
</g>
<g fill="#837F8C" fill-opacity="0.07" stroke="None">
<path d="
M 301.00 205.00 
C 303.29 203.78 305.59 201.21 307.00 199.00
C 306.04 200.28 302.37 204.14 301.00 205.00 Z"/>
</g>
<g fill="#D4D2DB" fill-opacity="0.31" stroke="None">
<path d="
M 113.00 201.00 
C 113.00 202.00 113.00 203.00 113.00 204.00
C 113.27 204.25 114.00 204.00 114.00 204.00
C 114.00 202.67 114.00 201.33 114.00 200.00
C 114.00 200.00 113.25 199.75 113.00 200.00
C 113.00 200.00 113.00 200.50 113.00 201.00 Z"/>
</g>
<g fill="#6B6B75" fill-opacity="0.03" stroke="None">
<path d="
M 334.00 200.00 
C 332.58 200.24 330.43 200.19 329.00 200.00
C 331.26 200.68 331.66 200.82 334.00 200.00 Z"/>
</g>
<g fill="#C0C0CE" fill-opacity="0.28" stroke="None">
<path d="
M 199.00 204.00 
C 197.57 202.87 196.60 201.92 195.00 201.00
C 196.24 201.87 197.53 203.08 199.00 204.00 Z"/>
</g>
<g fill="#9A97A8" fill-opacity="0.09" stroke="None">
<path d="
M 114.00 213.00 
C 114.00 212.50 114.00 212.00 114.00 212.00
C 114.00 209.33 114.00 206.67 114.00 204.00
C 114.00 204.00 113.27 204.25 113.00 204.00
C 113.00 207.27 113.42 210.34 114.00 213.00 Z"/>
</g>
<g fill="#397EA0" fill-opacity="0.31" stroke="None">
<path d="
M 334.00 210.00 
C 331.66 210.28 331.37 210.42 329.00 210.00
C 329.20 210.09 328.57 212.51 331.99 211.99 C 335.40 211.47 333.73 210.10 334.00 210.00 Z"/>
</g>
<g fill="#467FB0" fill-opacity="0.24" stroke="None">
<path d="
M 383.00 213.00 
C 383.00 214.60 383.33 213.99 384.00 215.00
C 384.00 213.67 383.94 212.33 384.00 211.00
C 383.96 211.14 383.13 212.66 383.00 213.00 Z"/>
</g>
<g fill="#DEDFE6" fill-opacity="0.45" stroke="None">
<path d="
M 114.00 213.00 
C 114.00 214.00 114.00 215.00 114.00 216.00
C 114.27 216.25 115.00 216.00 115.00 216.00
C 115.23 214.24 114.19 213.08 114.00 212.00
C 114.00 212.00 114.00 212.50 114.00 213.00 Z"/>
</g>
<g fill="#434D75" fill-opacity="0.04" stroke="None">
<path d="
M 198.00 215.00 
C 196.47 214.11 194.80 212.90 193.00 212.00
C 194.64 213.03 196.09 214.10 198.00 215.00 Z"/>
</g>
<g fill="#3D85BB" fill-opacity="0.63" stroke="None">
<path d="
M 383.00 217.00 
C 383.17 216.67 383.88 216.26 384.00 216.00
C 384.00 216.00 384.00 215.50 384.00 215.00
C 383.33 213.99 383.00 214.60 383.00 213.00
C 382.25 214.94 382.96 215.37 383.00 217.00 Z"/>
</g>
<g fill="#CACAD3" fill-opacity="0.37" stroke="None">
<path d="
M 273.00 217.00 
C 273.86 216.60 275.05 216.39 276.00 216.00
C 274.65 216.29 274.92 215.68 273.00 217.00 Z"/>
</g>
<g fill="#BABDC7" fill-opacity="0.22" stroke="None">
<path d="
M 114.00 220.00 
C 114.13 220.22 115.00 220.00 115.00 220.00
C 115.00 219.00 115.00 218.00 115.00 217.00
C 115.00 217.00 114.94 216.49 115.00 216.00
C 115.00 216.00 114.27 216.25 114.00 216.00
C 114.00 217.33 113.99 218.67 114.00 220.00 Z"/>
</g>
<g fill="#2B6C8D" fill-opacity="0.16" stroke="None">
<path d="
M 383.00 217.00 
C 381.92 219.13 382.94 220.52 383.00 222.00
C 383.23 219.92 384.27 218.42 384.00 216.00
C 383.88 216.26 383.17 216.67 383.00 217.00 Z"/>
</g>
<g fill="#F2F3F6" fill-opacity="0.74" stroke="None">
<path d="
M 115.00 220.00 
C 115.00 221.33 115.00 222.67 115.00 224.00
C 115.94 221.78 116.69 219.28 115.00 217.00
C 115.00 218.00 115.00 219.00 115.00 220.00 Z"/>
</g>
<g fill="#DCDCE6" fill-opacity="0.46" stroke="None">
<path d="
M 207.00 221.00 
C 205.87 220.33 204.34 218.84 203.00 218.00
C 203.48 218.45 205.50 220.49 207.00 221.00 Z"/>
</g>
<g fill="#C8C8D3" fill-opacity="0.41" stroke="None">
<path d="
M 265.00 221.00 
C 266.23 220.40 267.88 219.55 269.00 219.00
C 267.34 219.46 267.27 219.30 265.00 221.00 Z"/>
</g>
<g fill="#666A72" fill-opacity="0.05" stroke="None">
<path d="
M 115.00 226.00 
C 115.03 225.50 115.00 224.50 115.00 224.00
C 115.00 222.67 115.00 221.33 115.00 220.00
C 115.00 220.00 114.13 220.22 114.00 220.00
C 114.01 222.23 114.75 224.40 115.00 226.00 Z"/>
</g>
<g fill="#32799F" fill-opacity="0.32" stroke="None">
<path d="
M 292.00 222.00 
C 293.43 221.62 293.53 221.38 294.00 221.00
C 293.47 221.27 292.40 221.81 292.00 222.00 Z"/>
</g>
<g fill="#4480AD" fill-opacity="0.35" stroke="None">
<path d="
M 351.00 232.00 
C 351.00 232.00 351.50 232.00 352.00 232.00
C 353.62 230.80 356.73 230.58 359.00 231.00
C 357.42 229.37 351.17 228.92 351.00 232.00 Z"/>
</g>
<g fill="#386C95" fill-opacity="0.17" stroke="None">
<path d="
M 344.00 234.00 
C 345.33 233.76 347.03 232.20 348.00 232.00
C 345.68 231.65 345.63 232.28 344.00 234.00 Z"/>
</g>
<g fill="#020A57" fill-opacity="0.01" stroke="None">
<path d="
M 352.00 232.00 
C 354.32 232.00 356.69 231.85 359.00 232.00
C 359.00 232.00 359.25 231.26 359.00 231.00
C 356.73 230.58 353.62 230.80 352.00 232.00 Z"/>
</g>
<g fill="#3C8DC3" fill-opacity="0.71" stroke="None">
<path d="
M 330.00 243.00 
C 333.26 240.71 336.31 235.27 340.00 234.00
C 340.45 233.85 341.93 233.83 342.00 234.00
C 338.65 232.45 331.86 239.20 330.00 243.00 Z"/>
</g>
<g fill="#4187BD" fill-opacity="0.55" stroke="None">
<path d="
M 370.00 235.00 
C 370.00 235.00 370.84 234.77 371.00 235.00
C 371.57 233.14 368.73 232.28 370.00 235.00 Z"/>
</g>
<g fill="#4284B5" fill-opacity="0.28" stroke="None">
<path d="
M 330.00 243.00 
C 330.00 243.00 330.12 243.53 330.00 244.00
C 334.23 242.24 336.63 236.61 340.00 234.00
C 336.31 235.27 333.26 240.71 330.00 243.00 Z"/>
</g>
<g fill="#25547F" fill-opacity="0.05" stroke="None">
<path d="
M 330.00 244.00 
C 329.57 245.76 329.33 247.22 329.00 249.00
C 330.43 244.60 337.28 236.00 342.00 234.00
C 341.93 233.83 340.45 233.85 340.00 234.00
C 336.63 236.61 334.23 242.24 330.00 244.00 Z"/>
</g>
<g fill="#3982BB" fill-opacity="0.72" stroke="None">
<path d="
M 381.00 241.00 
C 381.45 239.94 380.41 237.98 381.00 237.00
C 379.07 231.85 380.87 241.35 381.00 241.00 Z"/>
</g>
<g fill="#1C4E83" fill-opacity="0.07" stroke="None">
<path d="
M 381.00 241.00 
C 381.94 239.53 381.87 239.00 382.00 237.00
C 382.00 237.00 381.06 237.16 381.00 237.00
C 380.41 237.98 381.45 239.94 381.00 241.00 Z"/>
</g>
<g fill="#348FCF" fill-opacity="0.91" stroke="None">
<path d="
M 335.00 264.00 
C 335.05 264.23 335.79 264.70 336.00 265.00
C 337.98 267.88 338.35 270.68 336.00 273.00
C 341.27 271.80 343.46 276.69 348.99 278.01 C 354.53 279.33 360.10 278.56 365.00 276.00
C 364.98 276.02 371.83 270.15 372.00 270.00
C 378.45 261.41 375.92 248.55 368.00 242.00
C 367.40 241.66 365.80 240.50 365.00 240.00
C 349.10 233.41 330.91 245.59 335.00 264.00 Z"/>
</g>
<g fill="#2C748F" fill-opacity="0.19" stroke="None">
<path d="
M 368.00 242.00 
C 367.06 241.22 366.29 240.54 365.00 240.00
C 365.80 240.50 367.40 241.66 368.00 242.00 Z"/>
</g>
<g fill="#DFDDE2" fill-opacity="0.45" stroke="None">
<path d="
M 241.00 267.00 
C 241.00 264.01 240.88 260.99 241.00 258.00
C 241.07 256.37 241.95 253.91 242.00 253.00
C 241.72 249.78 241.72 245.25 241.00 242.00
C 241.86 248.71 240.31 259.82 241.00 267.00 Z"/>
</g>
<g fill="#CACAD1" fill-opacity="0.46" stroke="None">
<path d="
M 119.00 254.00 
C 119.43 255.66 120.62 257.67 121.00 259.00
C 120.88 257.13 121.74 257.13 120.97 255.04 C 120.20 252.96 119.06 254.11 119.00 254.00 Z"/>
</g>
<g fill="#5555AA" fill-opacity="0.01" stroke="None">
<path d="
M 241.00 258.00 
C 241.00 257.96 242.00 258.00 242.00 258.00
C 242.00 256.35 242.14 254.64 242.00 253.00
C 241.95 253.91 241.07 256.37 241.00 258.00 Z"/>
</g>
<g fill="#787A85" fill-opacity="0.07" stroke="None">
<path d="
M 241.00 267.00 
C 241.00 287.33 241.00 307.67 241.00 328.00
C 241.00 327.96 242.00 328.00 242.00 328.00
C 242.00 304.67 242.00 281.33 242.00 258.00
C 242.00 258.00 241.00 257.96 241.00 258.00
C 240.88 260.99 241.00 264.01 241.00 267.00 Z"/>
</g>
<g fill="#3C77A7" fill-opacity="0.34" stroke="None">
<path d="
M 322.00 263.00 
C 324.34 261.50 325.80 261.63 327.00 259.00
C 327.73 257.85 321.34 263.69 322.00 263.00 Z"/>
</g>
<g fill="#3D77AD" fill-opacity="0.44" stroke="None">
<path d="
M 315.00 267.00 
C 315.94 266.55 316.99 266.52 318.00 266.00
C 319.21 265.73 318.61 263.64 316.70 264.70 C 314.79 265.75 315.09 266.92 315.00 267.00 Z"/>
</g>
<g fill="#808EA7" fill-opacity="0.13" stroke="None">
<path d="
M 332.00 266.00 
C 332.37 265.86 335.91 265.22 336.00 265.00
C 335.79 264.70 335.05 264.23 335.00 264.00
C 333.95 263.88 332.62 265.60 332.00 266.00 Z"/>
</g>
<g fill="#F5F6F7" fill-opacity="0.92" stroke="None">
<path d="
M 332.00 266.00 
C 328.94 267.13 326.48 269.20 324.00 271.00
C 322.26 272.26 321.94 271.69 321.00 272.00
C 316.52 274.34 312.09 277.31 308.00 280.00
C 306.65 280.89 305.92 281.88 304.00 282.00
C 304.00 282.00 303.35 281.77 303.00 282.00
C 301.17 285.23 300.83 282.95 299.00 282.00
C 293.16 279.91 286.07 274.64 279.75 278.75 C 273.42 282.85 270.68 286.21 269.00 293.00
C 268.74 295.26 269.00 297.72 269.00 300.00
C 271.15 301.88 272.24 305.57 274.00 308.00
C 274.69 308.95 276.09 311.46 277.00 312.00
C 277.37 312.22 278.50 312.01 279.00 312.00
C 281.91 311.93 280.68 313.46 282.00 314.00
C 286.60 314.91 293.21 314.03 297.00 312.00
C 298.71 310.84 298.26 308.49 301.00 308.00
C 301.88 305.87 302.43 302.78 304.00 301.00
C 303.73 297.99 304.22 295.33 305.00 293.00
C 306.95 287.14 314.30 284.43 319.75 281.75 C 325.21 279.08 330.08 274.35 336.00 273.00
C 338.35 270.68 337.98 267.88 336.00 265.00
C 335.91 265.22 332.37 265.86 332.00 266.00 Z"/>
</g>
<g fill="#3280B6" fill-opacity="0.68" stroke="None">
<path d="
M 280.00 271.00 
C 280.00 271.00 280.50 271.00 281.00 271.00
C 281.26 270.88 281.65 270.09 282.00 270.00
C 280.27 269.32 276.49 270.03 280.00 271.00 Z"/>
</g>
<g fill="#3175A7" fill-opacity="0.49" stroke="None">
<path d="
M 284.00 270.00 
C 284.50 270.00 285.00 270.00 285.00 270.00
C 285.85 270.00 288.29 269.57 289.00 270.00
C 287.48 268.04 285.56 269.29 284.00 270.00 Z"/>
</g>
<g fill="#376B9F" fill-opacity="0.36" stroke="None">
<path d="
M 365.00 276.00 
C 367.92 274.47 369.86 272.85 372.00 270.00
C 371.83 270.15 364.98 276.02 365.00 276.00 Z"/>
</g>
<g fill="#2C5A8A" fill-opacity="0.11" stroke="None">
<path d="
M 281.00 271.00 
C 282.33 271.00 283.67 271.00 285.00 271.00
C 284.78 270.87 285.00 270.00 285.00 270.00
C 285.00 270.00 284.50 270.00 284.00 270.00
C 283.50 270.00 282.47 269.88 282.00 270.00
C 281.65 270.09 281.26 270.88 281.00 271.00 Z"/>
</g>
<g fill="#002857" fill-opacity="0.03" stroke="None">
<path d="
M 285.00 271.00 
C 286.33 271.00 287.67 270.97 289.00 271.00
C 289.00 271.00 289.22 270.13 289.00 270.00
C 288.29 269.57 285.85 270.00 285.00 270.00
C 285.00 270.00 284.78 270.87 285.00 271.00 Z"/>
</g>
<g fill="#CFCFDB" fill-opacity="0.42" stroke="None">
<path d="
M 321.00 272.00 
C 321.94 271.69 322.26 272.26 324.00 271.00
C 323.12 271.45 321.98 271.49 321.00 272.00 Z"/>
</g>
<g fill="#ABABB4" fill-opacity="0.29" stroke="None">
<path d="
M 129.00 284.00 
C 128.76 283.36 127.71 281.56 127.00 280.00
C 127.57 281.65 128.17 282.44 129.00 284.00 Z"/>
</g>
<g fill="#A3A4A9" fill-opacity="0.20" stroke="None">
<path d="
M 304.00 282.00 
C 305.92 281.88 306.65 280.89 308.00 280.00
C 306.43 280.77 305.27 280.69 304.00 282.00 Z"/>
</g>
<g fill="#1A4A76" fill-opacity="0.06" stroke="None">
<path d="
M 256.00 302.00 
C 256.86 295.69 257.00 288.06 257.00 281.00
C 256.39 287.28 256.00 294.97 256.00 302.00 Z"/>
</g>
<g fill="#826E8D" fill-opacity="0.05" stroke="None">
<path d="
M 303.00 282.00 
C 301.25 283.16 300.73 282.62 299.00 282.00
C 300.83 282.95 301.17 285.23 303.00 282.00 Z"/>
</g>
<g fill="#BEBDC8" fill-opacity="0.35" stroke="None">
<path d="
M 135.00 297.00 
C 134.58 295.58 134.32 295.10 133.00 293.00
C 133.65 294.36 134.39 295.61 135.00 297.00 Z"/>
</g>
<g fill="#9E9AAE" fill-opacity="0.11" stroke="None">
<path d="
M 269.00 301.00 
C 268.89 300.53 269.00 300.00 269.00 300.00
C 269.00 297.72 268.74 295.26 269.00 293.00
C 268.26 295.97 268.14 297.95 269.00 301.00 Z"/>
</g>
<g fill="#DCDCEE" fill-opacity="0.49" stroke="None">
<path d="
M 304.00 301.00 
C 304.22 300.75 305.00 301.00 305.00 301.00
C 305.43 300.29 305.00 297.85 305.00 297.00
C 305.00 295.67 305.00 294.33 305.00 293.00
C 304.22 295.33 303.73 297.99 304.00 301.00 Z"/>
</g>
<g fill="#57585E" fill-opacity="0.03" stroke="None">
<path d="
M 305.00 297.00 
C 305.09 296.24 304.96 293.54 305.00 293.00
C 305.00 294.33 305.00 295.67 305.00 297.00 Z"/>
</g>
<g fill="#B6B8C3" fill-opacity="0.34" stroke="None">
<path d="
M 269.00 301.00 
C 269.45 302.93 270.46 306.60 272.00 308.00
C 272.17 307.76 273.63 307.78 274.00 308.00
C 272.24 305.57 271.15 301.88 269.00 300.00
C 269.00 300.00 268.89 300.53 269.00 301.00 Z"/>
</g>
<g fill="#286CB2" fill-opacity="0.75" stroke="None">
<path d="
M 301.00 308.00 
C 300.82 308.43 301.00 309.00 301.00 309.00
C 309.41 313.49 318.07 318.69 326.00 324.00
C 326.15 324.01 326.70 322.96 327.00 323.00
C 326.17 322.04 324.74 323.39 325.00 321.00
C 326.60 320.44 329.03 320.50 330.00 319.00
C 328.21 317.13 325.60 314.37 324.00 313.00
C 321.07 311.18 318.06 309.64 315.00 308.00
C 313.29 307.08 312.48 306.17 311.00 305.00
C 308.92 303.69 306.72 302.68 305.00 301.00
C 305.00 301.00 304.22 300.75 304.00 301.00
C 302.43 302.78 301.88 305.87 301.00 308.00 Z"/>
</g>
<g fill="#0A526D" fill-opacity="0.05" stroke="None">
<path d="
M 315.00 308.00 
C 313.76 307.18 312.45 305.91 311.00 305.00
C 312.48 306.17 313.29 307.08 315.00 308.00 Z"/>
</g>
<g fill="#3471A7" fill-opacity="0.37" stroke="None">
<path d="
M 256.00 311.00 
C 258.58 310.20 256.11 306.90 256.00 306.00
C 256.00 307.25 255.49 309.89 256.00 311.00 Z"/>
</g>
<g fill="#043B81" fill-opacity="0.21" stroke="None">
<path d="
M 347.00 308.00 
C 347.98 308.01 352.12 307.98 353.00 308.00
C 350.72 307.57 349.30 307.63 347.00 308.00 Z"/>
</g>
<g fill="#307EBA" fill-opacity="0.73" stroke="None">
<path d="
M 259.00 320.00 
C 258.74 320.33 258.73 320.60 257.75 322.75 C 256.77 324.90 253.97 323.46 255.00 323.00
C 250.17 325.59 247.01 331.92 250.00 337.00
C 251.93 336.83 252.74 334.91 254.00 334.00
C 255.22 332.50 255.80 332.06 258.00 331.00
C 263.34 326.86 268.82 322.13 274.00 318.00
C 274.15 317.83 276.11 313.11 277.00 312.00
C 276.09 311.46 274.69 308.95 274.00 308.00
C 273.63 307.78 272.17 307.76 272.00 308.00
C 268.92 312.35 263.43 316.32 259.00 320.00 Z"/>
</g>
<g fill="#A6A4B7" fill-opacity="0.29" stroke="None">
<path d="
M 297.00 312.00 
C 298.36 311.27 299.80 310.03 301.00 309.00
C 301.00 309.00 300.82 308.43 301.00 308.00
C 298.26 308.49 298.71 310.84 297.00 312.00 Z"/>
</g>
<g fill="#1951AC" fill-opacity="0.91" stroke="None">
<path d="
M 340.00 310.00 
C 339.75 310.25 339.32 310.80 339.00 311.00
C 336.98 313.59 333.77 318.19 331.00 319.00
C 330.54 319.14 330.00 319.00 330.00 319.00
C 329.03 320.50 326.60 320.44 325.00 321.00
C 324.74 323.39 326.17 322.04 327.00 323.00
C 327.69 323.80 328.66 325.02 329.00 326.00
C 331.61 333.63 331.77 344.34 342.33 346.67 C 352.89 349.00 360.65 346.35 366.00 338.00
C 366.22 337.48 368.26 334.62 368.00 335.00
C 373.95 322.64 365.70 310.39 353.00 308.00
C 352.12 307.98 347.98 308.01 347.00 308.00
C 344.45 308.41 341.81 308.15 340.00 310.00 Z"/>
</g>
<g fill="#194881" fill-opacity="0.11" stroke="None">
<path d="
M 324.00 313.00 
C 325.60 314.37 328.21 317.13 330.00 319.00
C 330.00 319.00 330.54 319.14 331.00 319.00
C 333.02 316.11 336.03 312.83 339.00 311.00
C 339.32 310.80 339.75 310.25 340.00 310.00
C 332.07 313.97 332.75 318.42 324.00 313.00 Z"/>
</g>
<g fill="#1E4B95" fill-opacity="0.45" stroke="None">
<path d="
M 331.00 319.00 
C 333.77 318.19 336.98 313.59 339.00 311.00
C 336.03 312.83 333.02 316.11 331.00 319.00 Z"/>
</g>
<g fill="#E7E6EF" fill-opacity="0.55" stroke="None">
<path d="
M 144.00 314.00 
C 144.78 315.25 146.93 316.07 147.00 318.00
C 146.41 316.34 146.01 314.24 144.00 312.00
C 144.24 312.30 143.91 313.52 144.00 314.00 Z"/>
</g>
<g fill="#3A6D9B" fill-opacity="0.24" stroke="None">
<path d="
M 274.00 318.00 
C 275.75 316.61 277.94 315.16 279.00 313.00
C 279.20 312.60 279.00 312.00 279.00 312.00
C 278.50 312.01 277.37 312.22 277.00 312.00
C 276.11 313.11 274.15 317.83 274.00 318.00 Z"/>
</g>
<g fill="#A7ABC1" fill-opacity="0.37" stroke="None">
<path d="
M 279.00 313.00 
C 279.32 313.20 281.54 313.91 282.00 314.00
C 280.68 313.46 281.91 311.93 279.00 312.00
C 279.00 312.00 279.20 312.60 279.00 313.00 Z"/>
</g>
<g fill="#88828A" fill-opacity="0.08" stroke="None">
<path d="
M 147.00 318.00 
C 146.93 316.07 144.78 315.25 144.00 314.00
C 144.39 315.98 146.05 316.63 147.00 318.00 Z"/>
</g>
<g fill="#D5D4DD" fill-opacity="0.45" stroke="None">
<path d="
M 149.00 321.00 
C 149.38 321.56 149.62 322.39 150.00 323.00
C 150.50 323.50 151.52 323.59 152.00 324.00
C 151.44 322.83 149.74 321.62 149.00 321.00 Z"/>
</g>
<g fill="#2F6EA3" fill-opacity="0.39" stroke="None">
<path d="
M 255.00 323.00 
C 253.97 323.46 256.77 324.90 257.75 322.75 C 258.73 320.60 258.74 320.33 259.00 320.00
C 257.80 321.00 256.25 321.97 255.00 323.00 Z"/>
</g>
<g fill="#919197" fill-opacity="0.12" stroke="None">
<path d="
M 153.00 327.00 
C 152.97 326.93 153.24 325.06 152.00 324.00
C 151.52 323.59 150.50 323.50 150.00 323.00
C 150.86 324.37 151.99 325.68 153.00 327.00 Z"/>
</g>
<g fill="#0E347C" fill-opacity="0.08" stroke="None">
<path d="
M 326.00 324.00 
C 326.46 324.31 328.68 325.49 329.00 326.00
C 328.66 325.02 327.69 323.80 327.00 323.00
C 326.70 322.96 326.15 324.01 326.00 324.00 Z"/>
</g>
<g fill="#D2CFD9" fill-opacity="0.29" stroke="None">
<path d="
M 241.00 347.00 
C 241.00 346.96 242.00 347.00 242.00 347.00
C 242.00 346.00 242.00 345.00 242.00 344.00
C 242.00 342.00 242.00 340.00 242.00 338.00
C 242.00 334.67 242.00 331.33 242.00 328.00
C 242.00 328.00 241.00 327.96 241.00 328.00
C 241.00 334.33 241.00 340.67 241.00 347.00 Z"/>
</g>
<g fill="#2D699A" fill-opacity="0.36" stroke="None">
<path d="
M 254.00 334.00 
C 255.31 333.05 256.82 331.92 258.00 331.00
C 255.80 332.06 255.22 332.50 254.00 334.00 Z"/>
</g>
<g fill="#89838E" fill-opacity="0.07" stroke="None">
<path d="
M 162.00 337.00 
C 160.96 335.91 160.08 333.93 159.00 333.00
C 158.39 332.63 157.58 332.49 157.00 332.00
C 158.49 333.73 160.43 335.32 162.00 337.00 Z"/>
</g>
<g fill="#F0EEF5" fill-opacity="0.72" stroke="None">
<path d="
M 162.00 337.00 
C 163.67 338.73 166.06 340.65 168.00 342.00
C 166.49 338.92 161.95 334.80 159.00 333.00
C 160.08 333.93 160.96 335.91 162.00 337.00 Z"/>
</g>
<g fill="#20478B" fill-opacity="0.37" stroke="None">
<path d="
M 366.00 338.00 
C 366.60 337.06 367.42 336.20 368.00 335.00
C 368.26 334.62 366.22 337.48 366.00 338.00 Z"/>
</g>
<g fill="#D1D0DC" fill-opacity="0.33" stroke="None">
<path d="
M 163.00 339.00 
C 164.36 340.46 166.63 341.63 168.00 343.00
C 168.00 343.00 168.20 342.40 168.00 342.00
C 166.06 340.65 163.67 338.73 162.00 337.00
C 162.33 337.35 162.71 338.52 163.00 339.00 Z"/>
</g>
<g fill="#000080" fill-opacity="0.01" stroke="None">
<path d="
M 242.00 344.00 
C 242.27 343.75 243.00 344.00 243.00 344.00
C 242.94 341.90 242.17 339.47 242.00 338.00
C 242.00 340.00 242.00 342.00 242.00 344.00 Z"/>
</g>
<g fill="#80808B" fill-opacity="0.09" stroke="None">
<path d="
M 182.00 358.00 
C 181.23 357.18 180.72 355.78 180.00 355.00
C 176.52 351.20 170.37 347.84 168.00 343.00
C 166.63 341.63 164.36 340.46 163.00 339.00
C 167.10 345.74 175.79 353.10 182.00 358.00 Z"/>
</g>
<g fill="#474747" fill-opacity="0.02" stroke="None">
<path d="
M 242.00 347.00 
C 242.00 349.67 242.00 352.33 242.00 355.00
C 242.00 354.96 243.00 355.00 243.00 355.00
C 243.00 351.34 243.10 347.66 243.00 344.00
C 243.00 344.00 242.27 343.75 242.00 344.00
C 242.00 345.00 242.00 346.00 242.00 347.00 Z"/>
</g>
<g fill="#204B8E" fill-opacity="0.55" stroke="None">
<path d="
M 269.00 386.00 
C 268.88 387.29 270.13 387.91 270.00 389.00
C 291.57 377.86 314.52 363.89 329.00 344.00
C 308.56 356.26 288.66 371.96 269.00 386.00 Z"/>
</g>
<g fill="#E7E7ED" fill-opacity="0.50" stroke="None">
<path d="
M 242.00 377.00 
C 242.00 376.00 242.00 375.00 242.00 374.00
C 242.00 367.67 242.00 361.33 242.00 355.00
C 242.00 352.33 242.00 349.67 242.00 347.00
C 242.00 347.00 241.00 346.96 241.00 347.00
C 241.00 357.00 241.10 367.71 242.00 377.00 Z"/>
</g>
<g fill="#D5D5DB" fill-opacity="0.42" stroke="None">
<path d="
M 182.00 358.00 
C 184.61 360.06 187.45 361.80 190.00 364.00
C 186.80 360.51 183.81 357.72 180.00 355.00
C 180.72 355.78 181.23 357.18 182.00 358.00 Z"/>
</g>
<g fill="#333455" fill-opacity="0.03" stroke="None">
<path d="
M 242.00 374.00 
C 242.27 373.75 243.00 374.00 243.00 374.00
C 243.00 367.67 243.00 361.33 243.00 355.00
C 243.00 355.00 242.00 354.96 242.00 355.00
C 242.00 361.33 242.00 367.67 242.00 374.00 Z"/>
</g>
<g fill="#AAAAB8" fill-opacity="0.10" stroke="None">
<path d="
M 242.00 377.00 
C 242.00 382.84 242.81 389.91 241.00 395.00
C 244.48 395.20 243.00 378.31 243.00 374.00
C 243.00 374.00 242.27 373.75 242.00 374.00
C 242.00 375.00 242.00 376.00 242.00 377.00 Z"/>
</g>
<g fill="#83818C" fill-opacity="0.07" stroke="None">
<path d="
M 225.00 388.00 
C 223.69 387.11 222.61 385.89 221.00 385.00
C 222.31 385.89 223.39 387.11 225.00 388.00 Z"/>
</g>
<g fill="#2A487E" fill-opacity="0.29" stroke="None">
<path d="
M 270.00 389.00 
C 270.13 387.91 268.88 387.29 269.00 386.00
C 264.48 388.30 259.13 390.57 256.00 395.00
C 260.75 395.91 265.87 391.18 270.00 389.00 Z"/>
</g>
<g fill="#C3BFCF" fill-opacity="0.45" stroke="None">
<path d="
M 241.00 395.00 
C 240.78 392.73 238.33 393.44 237.00 393.00
C 237.96 393.43 239.64 394.92 241.00 395.00 Z"/>
</g>
</svg>